<svg xmlns="http://www.w3.org/2000/svg" width="1000" height="300" viewBox="0 0 1000 300" role="img" aria-label="Daily commit activity over the last 13 weeks: 266 contributions, 177 in the last 30 days, peak of 48 in a single day, 29 active days.">
  <defs>
    <linearGradient id="metal-ac" x1="0" y1="0" x2="1" y2="0.25">
      <stop offset="0" stop-color="#f5f5f7"/>
      <stop offset="0.55" stop-color="#c8ccd8"/>
      <stop offset="1" stop-color="#8e93a6"/>
    </linearGradient>
    <radialGradient id="glow-ac" cx="0.5" cy="0.5" r="0.5">
      <stop offset="0" stop-color="#2b46b8"/>
      <stop offset="1" stop-color="#2b46b8" stop-opacity="0"/>
    </radialGradient>
    <linearGradient id="topline-ac" x1="0" y1="0" x2="1" y2="0">
      <stop offset="0" stop-color="#ffffff" stop-opacity="0"/>
      <stop offset="0.5" stop-color="#ffffff" stop-opacity="0.35"/>
      <stop offset="1" stop-color="#ffffff" stop-opacity="0"/>
    </linearGradient>
    <linearGradient id="sheen-ac" x1="0" y1="0" x2="1" y2="0">
      <stop offset="0" stop-color="#ffffff" stop-opacity="0"/>
      <stop offset="0.5" stop-color="#ffffff" stop-opacity="0.1"/>
      <stop offset="1" stop-color="#ffffff" stop-opacity="0"/>
    </linearGradient>
    <clipPath id="frame-ac"><rect width="1000" height="300" rx="28"/></clipPath><clipPath id="odo-c0-0"><rect x="559.3" y="30.22" width="15.8" height="26.22"/></clipPath><clipPath id="odo-c0-1"><rect x="573.1" y="30.22" width="15.8" height="26.22"/></clipPath><clipPath id="odo-c0-2"><rect x="586.9" y="30.22" width="15.8" height="26.22"/></clipPath><clipPath id="odo-c1-0"><rect x="695.3" y="30.22" width="15.8" height="26.22"/></clipPath><clipPath id="odo-c1-1"><rect x="709.1" y="30.22" width="15.8" height="26.22"/></clipPath><clipPath id="odo-c1-2"><rect x="722.9" y="30.22" width="15.8" height="26.22"/></clipPath><clipPath id="odo-c2-0"><rect x="838.2" y="30.22" width="15.8" height="26.22"/></clipPath><clipPath id="odo-c2-1"><rect x="852" y="30.22" width="15.8" height="26.22"/></clipPath>
      <linearGradient id="barg-ac" x1="0" y1="0" x2="0" y2="1">
        <stop offset="0" stop-color="#5fb2ff" stop-opacity="0.9"/>
        <stop offset="1" stop-color="#1857b0" stop-opacity="0.4"/>
      </linearGradient>
      <linearGradient id="areag-ac" x1="0" y1="0" x2="0" y2="1">
        <stop offset="0" stop-color="#2997ff" stop-opacity="0.28"/>
        <stop offset="1" stop-color="#2997ff" stop-opacity="0"/>
      </linearGradient>
      <mask id="wipe-ac"><rect x="104" y="0" width="812" height="300" fill="#ffffff">
        <animate attributeName="width" values="0;812" begin="0.45s" dur="1.9s" fill="freeze" calcMode="spline" keySplines="0.35 0.1 0.3 1" keyTimes="0;1"/>
      </rect></mask></defs>
  <style>
    text{font-family:-apple-system,BlinkMacSystemFont,'SF Pro Display','Segoe UI',Helvetica,Arial,sans-serif;font-variant-numeric:tabular-nums;font-feature-settings:"tnum" 1}
    @keyframes tw-ac{0%,100%{opacity:.12}50%{opacity:.85}}
    .st-ac{animation:tw-ac 4.2s ease-in-out infinite}
    @keyframes pl-ac{0%,100%{opacity:.45}50%{opacity:.75}}
    .gl-ac{animation:pl-ac 8s ease-in-out infinite}
    @keyframes fu-ac{0%{opacity:0;transform:translateY(10px)}100%{opacity:1;transform:translateY(0)}}
    .fu-ac{animation:fu-ac .8s cubic-bezier(.25,.1,.25,1) both}
    @keyframes fi-ac{0%{opacity:0}100%{opacity:1}}
    .fi-ac{animation:fi-ac .7s ease-out both}
    @keyframes fl-ac{0%,100%{transform:translateY(0)}50%{transform:translateY(-4px)}}
    .fl-ac{animation:fl-ac 6.5s ease-in-out infinite}
  
      @keyframes gb-ac{0%{transform:scaleY(0)}100%{transform:scaleY(1)}}
      .bar-ac{transform-box:fill-box;transform-origin:bottom;animation:gb-ac .6s cubic-bezier(.25,.1,.25,1) both}
      @keyframes pd-ac{0%,100%{opacity:.75}50%{opacity:1}}
      .dot-ac{animation:fi-ac .4s ease-out 2.3s both,pd-ac 2.2s ease-in-out 2.7s infinite}
      @keyframes rp-ac{0%{r:4;opacity:.7}100%{r:16;opacity:0}}
      .ring-ac{opacity:0;animation:rp-ac 2.4s ease-out 2.5s infinite}
      @keyframes draw-ac{0%{stroke-dashoffset:839.9}100%{stroke-dashoffset:0}}.line-ac{stroke-dasharray:839.9;animation:draw-ac 1.9s cubic-bezier(.35,.1,.3,1) both;animation-delay:.45s}@keyframes or-c0-0{0%{transform:translateY(617.32px)}100%{transform:translateY(0)}}.odo-c0-0{animation:or-c0-0 1.6s cubic-bezier(.16,.84,.36,1) both;animation-delay:0.35s}@keyframes or-c0-1{0%{transform:translateY(729.56px)}100%{transform:translateY(0)}}.odo-c0-1{animation:or-c0-1 1.6s cubic-bezier(.16,.84,.36,1) both;animation-delay:0.44s}@keyframes or-c0-2{0%{transform:translateY(729.56px)}100%{transform:translateY(0)}}.odo-c0-2{animation:or-c0-2 1.6s cubic-bezier(.16,.84,.36,1) both;animation-delay:0.53s}@keyframes or-c1-0{0%{transform:translateY(589.26px)}100%{transform:translateY(0)}}.odo-c1-0{animation:or-c1-0 1.6s cubic-bezier(.16,.84,.36,1) both;animation-delay:0.46s}@keyframes or-c1-1{0%{transform:translateY(757.62px)}100%{transform:translateY(0)}}.odo-c1-1{animation:or-c1-1 1.6s cubic-bezier(.16,.84,.36,1) both;animation-delay:0.55s}@keyframes or-c1-2{0%{transform:translateY(757.62px)}100%{transform:translateY(0)}}.odo-c1-2{animation:or-c1-2 1.6s cubic-bezier(.16,.84,.36,1) both;animation-delay:0.64s}@keyframes or-c2-0{0%{transform:translateY(673.44px)}100%{transform:translateY(0)}}.odo-c2-0{animation:or-c2-0 1.6s cubic-bezier(.16,.84,.36,1) both;animation-delay:0.57s}@keyframes or-c2-1{0%{transform:translateY(785.68px)}100%{transform:translateY(0)}}.odo-c2-1{animation:or-c2-1 1.6s cubic-bezier(.16,.84,.36,1) both;animation-delay:0.66s}</style>

  <g clip-path="url(#frame-ac)">
    <rect width="1000" height="300" fill="#000000"/>
    <g fill="#ffffff"><circle class="st-ac" cx="484" cy="185" r="1.3" style="animation-delay:-0.4s"/><circle class="st-ac" cx="368" cy="90" r="1.2" style="animation-delay:-1.5s"/><circle class="st-ac" cx="244" cy="71" r="1.5" style="animation-delay:-4.2s"/><circle class="st-ac" cx="154" cy="172" r="1.4" style="animation-delay:-3.7s"/><circle class="st-ac" cx="780" cy="31" r="1.3" style="animation-delay:-2.1s"/><circle class="st-ac" cx="51" cy="74" r="1.1" style="animation-delay:-4s"/><circle class="st-ac" cx="147" cy="100" r="1.1" style="animation-delay:-2.5s"/><circle class="st-ac" cx="998" cy="220" r="1" style="animation-delay:-1.9s"/><circle class="st-ac" cx="75" cy="42" r="1.4" style="animation-delay:-0.3s"/><circle class="st-ac" cx="817" cy="26" r="1.2" style="animation-delay:-1.2s"/><circle class="st-ac" cx="612" cy="247" r="1.1" style="animation-delay:-1s"/><circle class="st-ac" cx="987" cy="220" r="0.9" style="animation-delay:-4s"/></g>
    <ellipse class="gl-ac" cx="500" cy="350" rx="430" ry="140" fill="url(#glow-ac)" opacity="0.4"/>
    <text x="56" y="46" text-anchor="start" font-size="12" font-weight="600" letter-spacing="3" fill="#86868b">DAILY ACTIVITY · 13 WEEKS</text>
    <g class="fu-ac" style="animation-delay:0.2s">
      <rect x="518" y="24" width="126" height="52" rx="15" fill="#ffffff" fill-opacity="0.05" stroke="#ffffff" stroke-opacity="0.14"/>
      <g clip-path="url(#odo-c0-0)"><g class="odo-c0-0"><text x="567.1999999999999" y="-567.32" text-anchor="middle" font-size="23" font-weight="700" fill="#e8e8ed">0</text><text x="567.1999999999999" y="-539.26" text-anchor="middle" font-size="23" font-weight="700" fill="#e8e8ed">1</text><text x="567.1999999999999" y="-511.2" text-anchor="middle" font-size="23" font-weight="700" fill="#e8e8ed">2</text><text x="567.1999999999999" y="-483.14" text-anchor="middle" font-size="23" font-weight="700" fill="#e8e8ed">3</text><text x="567.1999999999999" y="-455.08" text-anchor="middle" font-size="23" font-weight="700" fill="#e8e8ed">4</text><text x="567.1999999999999" y="-427.02" text-anchor="middle" font-size="23" font-weight="700" fill="#e8e8ed">5</text><text x="567.1999999999999" y="-398.96" text-anchor="middle" font-size="23" font-weight="700" fill="#e8e8ed">6</text><text x="567.1999999999999" y="-370.9" text-anchor="middle" font-size="23" font-weight="700" fill="#e8e8ed">7</text><text x="567.1999999999999" y="-342.84" text-anchor="middle" font-size="23" font-weight="700" fill="#e8e8ed">8</text><text x="567.1999999999999" y="-314.78" text-anchor="middle" font-size="23" font-weight="700" fill="#e8e8ed">9</text><text x="567.1999999999999" y="-286.72" text-anchor="middle" font-size="23" font-weight="700" fill="#e8e8ed">0</text><text x="567.1999999999999" y="-258.66" text-anchor="middle" font-size="23" font-weight="700" fill="#e8e8ed">1</text><text x="567.1999999999999" y="-230.6" text-anchor="middle" font-size="23" font-weight="700" fill="#e8e8ed">2</text><text x="567.1999999999999" y="-202.54" text-anchor="middle" font-size="23" font-weight="700" fill="#e8e8ed">3</text><text x="567.1999999999999" y="-174.48" text-anchor="middle" font-size="23" font-weight="700" fill="#e8e8ed">4</text><text x="567.1999999999999" y="-146.42" text-anchor="middle" font-size="23" font-weight="700" fill="#e8e8ed">5</text><text x="567.1999999999999" y="-118.36" text-anchor="middle" font-size="23" font-weight="700" fill="#e8e8ed">6</text><text x="567.1999999999999" y="-90.3" text-anchor="middle" font-size="23" font-weight="700" fill="#e8e8ed">7</text><text x="567.1999999999999" y="-62.24" text-anchor="middle" font-size="23" font-weight="700" fill="#e8e8ed">8</text><text x="567.1999999999999" y="-34.18" text-anchor="middle" font-size="23" font-weight="700" fill="#e8e8ed">9</text><text x="567.1999999999999" y="-6.12" text-anchor="middle" font-size="23" font-weight="700" fill="#e8e8ed">0</text><text x="567.1999999999999" y="21.94" text-anchor="middle" font-size="23" font-weight="700" fill="#e8e8ed">1</text><text x="567.1999999999999" y="50" text-anchor="middle" font-size="23" font-weight="700" fill="#e8e8ed">2</text></g></g><g clip-path="url(#odo-c0-1)"><g class="odo-c0-1"><text x="580.9999999999999" y="-679.56" text-anchor="middle" font-size="23" font-weight="700" fill="#e8e8ed">0</text><text x="580.9999999999999" y="-651.5" text-anchor="middle" font-size="23" font-weight="700" fill="#e8e8ed">1</text><text x="580.9999999999999" y="-623.44" text-anchor="middle" font-size="23" font-weight="700" fill="#e8e8ed">2</text><text x="580.9999999999999" y="-595.38" text-anchor="middle" font-size="23" font-weight="700" fill="#e8e8ed">3</text><text x="580.9999999999999" y="-567.32" text-anchor="middle" font-size="23" font-weight="700" fill="#e8e8ed">4</text><text x="580.9999999999999" y="-539.26" text-anchor="middle" font-size="23" font-weight="700" fill="#e8e8ed">5</text><text x="580.9999999999999" y="-511.2" text-anchor="middle" font-size="23" font-weight="700" fill="#e8e8ed">6</text><text x="580.9999999999999" y="-483.14" text-anchor="middle" font-size="23" font-weight="700" fill="#e8e8ed">7</text><text x="580.9999999999999" y="-455.08" text-anchor="middle" font-size="23" font-weight="700" fill="#e8e8ed">8</text><text x="580.9999999999999" y="-427.02" text-anchor="middle" font-size="23" font-weight="700" fill="#e8e8ed">9</text><text x="580.9999999999999" y="-398.96" text-anchor="middle" font-size="23" font-weight="700" fill="#e8e8ed">0</text><text x="580.9999999999999" y="-370.9" text-anchor="middle" font-size="23" font-weight="700" fill="#e8e8ed">1</text><text x="580.9999999999999" y="-342.84" text-anchor="middle" font-size="23" font-weight="700" fill="#e8e8ed">2</text><text x="580.9999999999999" y="-314.78" text-anchor="middle" font-size="23" font-weight="700" fill="#e8e8ed">3</text><text x="580.9999999999999" y="-286.72" text-anchor="middle" font-size="23" font-weight="700" fill="#e8e8ed">4</text><text x="580.9999999999999" y="-258.66" text-anchor="middle" font-size="23" font-weight="700" fill="#e8e8ed">5</text><text x="580.9999999999999" y="-230.6" text-anchor="middle" font-size="23" font-weight="700" fill="#e8e8ed">6</text><text x="580.9999999999999" y="-202.54" text-anchor="middle" font-size="23" font-weight="700" fill="#e8e8ed">7</text><text x="580.9999999999999" y="-174.48" text-anchor="middle" font-size="23" font-weight="700" fill="#e8e8ed">8</text><text x="580.9999999999999" y="-146.42" text-anchor="middle" font-size="23" font-weight="700" fill="#e8e8ed">9</text><text x="580.9999999999999" y="-118.36" text-anchor="middle" font-size="23" font-weight="700" fill="#e8e8ed">0</text><text x="580.9999999999999" y="-90.3" text-anchor="middle" font-size="23" font-weight="700" fill="#e8e8ed">1</text><text x="580.9999999999999" y="-62.24" text-anchor="middle" font-size="23" font-weight="700" fill="#e8e8ed">2</text><text x="580.9999999999999" y="-34.18" text-anchor="middle" font-size="23" font-weight="700" fill="#e8e8ed">3</text><text x="580.9999999999999" y="-6.12" text-anchor="middle" font-size="23" font-weight="700" fill="#e8e8ed">4</text><text x="580.9999999999999" y="21.94" text-anchor="middle" font-size="23" font-weight="700" fill="#e8e8ed">5</text><text x="580.9999999999999" y="50" text-anchor="middle" font-size="23" font-weight="700" fill="#e8e8ed">6</text></g></g><g clip-path="url(#odo-c0-2)"><g class="odo-c0-2"><text x="594.7999999999998" y="-679.56" text-anchor="middle" font-size="23" font-weight="700" fill="#e8e8ed">0</text><text x="594.7999999999998" y="-651.5" text-anchor="middle" font-size="23" font-weight="700" fill="#e8e8ed">1</text><text x="594.7999999999998" y="-623.44" text-anchor="middle" font-size="23" font-weight="700" fill="#e8e8ed">2</text><text x="594.7999999999998" y="-595.38" text-anchor="middle" font-size="23" font-weight="700" fill="#e8e8ed">3</text><text x="594.7999999999998" y="-567.32" text-anchor="middle" font-size="23" font-weight="700" fill="#e8e8ed">4</text><text x="594.7999999999998" y="-539.26" text-anchor="middle" font-size="23" font-weight="700" fill="#e8e8ed">5</text><text x="594.7999999999998" y="-511.2" text-anchor="middle" font-size="23" font-weight="700" fill="#e8e8ed">6</text><text x="594.7999999999998" y="-483.14" text-anchor="middle" font-size="23" font-weight="700" fill="#e8e8ed">7</text><text x="594.7999999999998" y="-455.08" text-anchor="middle" font-size="23" font-weight="700" fill="#e8e8ed">8</text><text x="594.7999999999998" y="-427.02" text-anchor="middle" font-size="23" font-weight="700" fill="#e8e8ed">9</text><text x="594.7999999999998" y="-398.96" text-anchor="middle" font-size="23" font-weight="700" fill="#e8e8ed">0</text><text x="594.7999999999998" y="-370.9" text-anchor="middle" font-size="23" font-weight="700" fill="#e8e8ed">1</text><text x="594.7999999999998" y="-342.84" text-anchor="middle" font-size="23" font-weight="700" fill="#e8e8ed">2</text><text x="594.7999999999998" y="-314.78" text-anchor="middle" font-size="23" font-weight="700" fill="#e8e8ed">3</text><text x="594.7999999999998" y="-286.72" text-anchor="middle" font-size="23" font-weight="700" fill="#e8e8ed">4</text><text x="594.7999999999998" y="-258.66" text-anchor="middle" font-size="23" font-weight="700" fill="#e8e8ed">5</text><text x="594.7999999999998" y="-230.6" text-anchor="middle" font-size="23" font-weight="700" fill="#e8e8ed">6</text><text x="594.7999999999998" y="-202.54" text-anchor="middle" font-size="23" font-weight="700" fill="#e8e8ed">7</text><text x="594.7999999999998" y="-174.48" text-anchor="middle" font-size="23" font-weight="700" fill="#e8e8ed">8</text><text x="594.7999999999998" y="-146.42" text-anchor="middle" font-size="23" font-weight="700" fill="#e8e8ed">9</text><text x="594.7999999999998" y="-118.36" text-anchor="middle" font-size="23" font-weight="700" fill="#e8e8ed">0</text><text x="594.7999999999998" y="-90.3" text-anchor="middle" font-size="23" font-weight="700" fill="#e8e8ed">1</text><text x="594.7999999999998" y="-62.24" text-anchor="middle" font-size="23" font-weight="700" fill="#e8e8ed">2</text><text x="594.7999999999998" y="-34.18" text-anchor="middle" font-size="23" font-weight="700" fill="#e8e8ed">3</text><text x="594.7999999999998" y="-6.12" text-anchor="middle" font-size="23" font-weight="700" fill="#e8e8ed">4</text><text x="594.7999999999998" y="21.94" text-anchor="middle" font-size="23" font-weight="700" fill="#e8e8ed">5</text><text x="594.7999999999998" y="50" text-anchor="middle" font-size="23" font-weight="700" fill="#e8e8ed">6</text></g></g>
      <text x="581" y="67" text-anchor="middle" font-size="10.5" fill="#86868b">last 13 weeks</text>
    </g><g class="fu-ac" style="animation-delay:0.31s">
      <rect x="654" y="24" width="126" height="52" rx="15" fill="#ffffff" fill-opacity="0.05" stroke="#ffffff" stroke-opacity="0.14"/>
      <g clip-path="url(#odo-c1-0)"><g class="odo-c1-0"><text x="703.1999999999999" y="-539.26" text-anchor="middle" font-size="23" font-weight="700" fill="#e8e8ed">0</text><text x="703.1999999999999" y="-511.2" text-anchor="middle" font-size="23" font-weight="700" fill="#e8e8ed">1</text><text x="703.1999999999999" y="-483.14" text-anchor="middle" font-size="23" font-weight="700" fill="#e8e8ed">2</text><text x="703.1999999999999" y="-455.08" text-anchor="middle" font-size="23" font-weight="700" fill="#e8e8ed">3</text><text x="703.1999999999999" y="-427.02" text-anchor="middle" font-size="23" font-weight="700" fill="#e8e8ed">4</text><text x="703.1999999999999" y="-398.96" text-anchor="middle" font-size="23" font-weight="700" fill="#e8e8ed">5</text><text x="703.1999999999999" y="-370.9" text-anchor="middle" font-size="23" font-weight="700" fill="#e8e8ed">6</text><text x="703.1999999999999" y="-342.84" text-anchor="middle" font-size="23" font-weight="700" fill="#e8e8ed">7</text><text x="703.1999999999999" y="-314.78" text-anchor="middle" font-size="23" font-weight="700" fill="#e8e8ed">8</text><text x="703.1999999999999" y="-286.72" text-anchor="middle" font-size="23" font-weight="700" fill="#e8e8ed">9</text><text x="703.1999999999999" y="-258.66" text-anchor="middle" font-size="23" font-weight="700" fill="#e8e8ed">0</text><text x="703.1999999999999" y="-230.6" text-anchor="middle" font-size="23" font-weight="700" fill="#e8e8ed">1</text><text x="703.1999999999999" y="-202.54" text-anchor="middle" font-size="23" font-weight="700" fill="#e8e8ed">2</text><text x="703.1999999999999" y="-174.48" text-anchor="middle" font-size="23" font-weight="700" fill="#e8e8ed">3</text><text x="703.1999999999999" y="-146.42" text-anchor="middle" font-size="23" font-weight="700" fill="#e8e8ed">4</text><text x="703.1999999999999" y="-118.36" text-anchor="middle" font-size="23" font-weight="700" fill="#e8e8ed">5</text><text x="703.1999999999999" y="-90.3" text-anchor="middle" font-size="23" font-weight="700" fill="#e8e8ed">6</text><text x="703.1999999999999" y="-62.24" text-anchor="middle" font-size="23" font-weight="700" fill="#e8e8ed">7</text><text x="703.1999999999999" y="-34.18" text-anchor="middle" font-size="23" font-weight="700" fill="#e8e8ed">8</text><text x="703.1999999999999" y="-6.12" text-anchor="middle" font-size="23" font-weight="700" fill="#e8e8ed">9</text><text x="703.1999999999999" y="21.94" text-anchor="middle" font-size="23" font-weight="700" fill="#e8e8ed">0</text><text x="703.1999999999999" y="50" text-anchor="middle" font-size="23" font-weight="700" fill="#e8e8ed">1</text></g></g><g clip-path="url(#odo-c1-1)"><g class="odo-c1-1"><text x="716.9999999999999" y="-707.62" text-anchor="middle" font-size="23" font-weight="700" fill="#e8e8ed">0</text><text x="716.9999999999999" y="-679.56" text-anchor="middle" font-size="23" font-weight="700" fill="#e8e8ed">1</text><text x="716.9999999999999" y="-651.5" text-anchor="middle" font-size="23" font-weight="700" fill="#e8e8ed">2</text><text x="716.9999999999999" y="-623.44" text-anchor="middle" font-size="23" font-weight="700" fill="#e8e8ed">3</text><text x="716.9999999999999" y="-595.38" text-anchor="middle" font-size="23" font-weight="700" fill="#e8e8ed">4</text><text x="716.9999999999999" y="-567.32" text-anchor="middle" font-size="23" font-weight="700" fill="#e8e8ed">5</text><text x="716.9999999999999" y="-539.26" text-anchor="middle" font-size="23" font-weight="700" fill="#e8e8ed">6</text><text x="716.9999999999999" y="-511.2" text-anchor="middle" font-size="23" font-weight="700" fill="#e8e8ed">7</text><text x="716.9999999999999" y="-483.14" text-anchor="middle" font-size="23" font-weight="700" fill="#e8e8ed">8</text><text x="716.9999999999999" y="-455.08" text-anchor="middle" font-size="23" font-weight="700" fill="#e8e8ed">9</text><text x="716.9999999999999" y="-427.02" text-anchor="middle" font-size="23" font-weight="700" fill="#e8e8ed">0</text><text x="716.9999999999999" y="-398.96" text-anchor="middle" font-size="23" font-weight="700" fill="#e8e8ed">1</text><text x="716.9999999999999" y="-370.9" text-anchor="middle" font-size="23" font-weight="700" fill="#e8e8ed">2</text><text x="716.9999999999999" y="-342.84" text-anchor="middle" font-size="23" font-weight="700" fill="#e8e8ed">3</text><text x="716.9999999999999" y="-314.78" text-anchor="middle" font-size="23" font-weight="700" fill="#e8e8ed">4</text><text x="716.9999999999999" y="-286.72" text-anchor="middle" font-size="23" font-weight="700" fill="#e8e8ed">5</text><text x="716.9999999999999" y="-258.66" text-anchor="middle" font-size="23" font-weight="700" fill="#e8e8ed">6</text><text x="716.9999999999999" y="-230.6" text-anchor="middle" font-size="23" font-weight="700" fill="#e8e8ed">7</text><text x="716.9999999999999" y="-202.54" text-anchor="middle" font-size="23" font-weight="700" fill="#e8e8ed">8</text><text x="716.9999999999999" y="-174.48" text-anchor="middle" font-size="23" font-weight="700" fill="#e8e8ed">9</text><text x="716.9999999999999" y="-146.42" text-anchor="middle" font-size="23" font-weight="700" fill="#e8e8ed">0</text><text x="716.9999999999999" y="-118.36" text-anchor="middle" font-size="23" font-weight="700" fill="#e8e8ed">1</text><text x="716.9999999999999" y="-90.3" text-anchor="middle" font-size="23" font-weight="700" fill="#e8e8ed">2</text><text x="716.9999999999999" y="-62.24" text-anchor="middle" font-size="23" font-weight="700" fill="#e8e8ed">3</text><text x="716.9999999999999" y="-34.18" text-anchor="middle" font-size="23" font-weight="700" fill="#e8e8ed">4</text><text x="716.9999999999999" y="-6.12" text-anchor="middle" font-size="23" font-weight="700" fill="#e8e8ed">5</text><text x="716.9999999999999" y="21.94" text-anchor="middle" font-size="23" font-weight="700" fill="#e8e8ed">6</text><text x="716.9999999999999" y="50" text-anchor="middle" font-size="23" font-weight="700" fill="#e8e8ed">7</text></g></g><g clip-path="url(#odo-c1-2)"><g class="odo-c1-2"><text x="730.7999999999998" y="-707.62" text-anchor="middle" font-size="23" font-weight="700" fill="#e8e8ed">0</text><text x="730.7999999999998" y="-679.56" text-anchor="middle" font-size="23" font-weight="700" fill="#e8e8ed">1</text><text x="730.7999999999998" y="-651.5" text-anchor="middle" font-size="23" font-weight="700" fill="#e8e8ed">2</text><text x="730.7999999999998" y="-623.44" text-anchor="middle" font-size="23" font-weight="700" fill="#e8e8ed">3</text><text x="730.7999999999998" y="-595.38" text-anchor="middle" font-size="23" font-weight="700" fill="#e8e8ed">4</text><text x="730.7999999999998" y="-567.32" text-anchor="middle" font-size="23" font-weight="700" fill="#e8e8ed">5</text><text x="730.7999999999998" y="-539.26" text-anchor="middle" font-size="23" font-weight="700" fill="#e8e8ed">6</text><text x="730.7999999999998" y="-511.2" text-anchor="middle" font-size="23" font-weight="700" fill="#e8e8ed">7</text><text x="730.7999999999998" y="-483.14" text-anchor="middle" font-size="23" font-weight="700" fill="#e8e8ed">8</text><text x="730.7999999999998" y="-455.08" text-anchor="middle" font-size="23" font-weight="700" fill="#e8e8ed">9</text><text x="730.7999999999998" y="-427.02" text-anchor="middle" font-size="23" font-weight="700" fill="#e8e8ed">0</text><text x="730.7999999999998" y="-398.96" text-anchor="middle" font-size="23" font-weight="700" fill="#e8e8ed">1</text><text x="730.7999999999998" y="-370.9" text-anchor="middle" font-size="23" font-weight="700" fill="#e8e8ed">2</text><text x="730.7999999999998" y="-342.84" text-anchor="middle" font-size="23" font-weight="700" fill="#e8e8ed">3</text><text x="730.7999999999998" y="-314.78" text-anchor="middle" font-size="23" font-weight="700" fill="#e8e8ed">4</text><text x="730.7999999999998" y="-286.72" text-anchor="middle" font-size="23" font-weight="700" fill="#e8e8ed">5</text><text x="730.7999999999998" y="-258.66" text-anchor="middle" font-size="23" font-weight="700" fill="#e8e8ed">6</text><text x="730.7999999999998" y="-230.6" text-anchor="middle" font-size="23" font-weight="700" fill="#e8e8ed">7</text><text x="730.7999999999998" y="-202.54" text-anchor="middle" font-size="23" font-weight="700" fill="#e8e8ed">8</text><text x="730.7999999999998" y="-174.48" text-anchor="middle" font-size="23" font-weight="700" fill="#e8e8ed">9</text><text x="730.7999999999998" y="-146.42" text-anchor="middle" font-size="23" font-weight="700" fill="#e8e8ed">0</text><text x="730.7999999999998" y="-118.36" text-anchor="middle" font-size="23" font-weight="700" fill="#e8e8ed">1</text><text x="730.7999999999998" y="-90.3" text-anchor="middle" font-size="23" font-weight="700" fill="#e8e8ed">2</text><text x="730.7999999999998" y="-62.24" text-anchor="middle" font-size="23" font-weight="700" fill="#e8e8ed">3</text><text x="730.7999999999998" y="-34.18" text-anchor="middle" font-size="23" font-weight="700" fill="#e8e8ed">4</text><text x="730.7999999999998" y="-6.12" text-anchor="middle" font-size="23" font-weight="700" fill="#e8e8ed">5</text><text x="730.7999999999998" y="21.94" text-anchor="middle" font-size="23" font-weight="700" fill="#e8e8ed">6</text><text x="730.7999999999998" y="50" text-anchor="middle" font-size="23" font-weight="700" fill="#e8e8ed">7</text></g></g>
      <text x="717" y="67" text-anchor="middle" font-size="10.5" fill="#86868b">last 30 days</text>
    </g><g class="fu-ac" style="animation-delay:0.42s">
      <rect x="790" y="24" width="126" height="52" rx="15" fill="#ffffff" fill-opacity="0.05" stroke="#ffffff" stroke-opacity="0.14"/>
      <g clip-path="url(#odo-c2-0)"><g class="odo-c2-0"><text x="846.1" y="-623.44" text-anchor="middle" font-size="23" font-weight="700" fill="#e8e8ed">0</text><text x="846.1" y="-595.38" text-anchor="middle" font-size="23" font-weight="700" fill="#e8e8ed">1</text><text x="846.1" y="-567.32" text-anchor="middle" font-size="23" font-weight="700" fill="#e8e8ed">2</text><text x="846.1" y="-539.26" text-anchor="middle" font-size="23" font-weight="700" fill="#e8e8ed">3</text><text x="846.1" y="-511.2" text-anchor="middle" font-size="23" font-weight="700" fill="#e8e8ed">4</text><text x="846.1" y="-483.14" text-anchor="middle" font-size="23" font-weight="700" fill="#e8e8ed">5</text><text x="846.1" y="-455.08" text-anchor="middle" font-size="23" font-weight="700" fill="#e8e8ed">6</text><text x="846.1" y="-427.02" text-anchor="middle" font-size="23" font-weight="700" fill="#e8e8ed">7</text><text x="846.1" y="-398.96" text-anchor="middle" font-size="23" font-weight="700" fill="#e8e8ed">8</text><text x="846.1" y="-370.9" text-anchor="middle" font-size="23" font-weight="700" fill="#e8e8ed">9</text><text x="846.1" y="-342.84" text-anchor="middle" font-size="23" font-weight="700" fill="#e8e8ed">0</text><text x="846.1" y="-314.78" text-anchor="middle" font-size="23" font-weight="700" fill="#e8e8ed">1</text><text x="846.1" y="-286.72" text-anchor="middle" font-size="23" font-weight="700" fill="#e8e8ed">2</text><text x="846.1" y="-258.66" text-anchor="middle" font-size="23" font-weight="700" fill="#e8e8ed">3</text><text x="846.1" y="-230.6" text-anchor="middle" font-size="23" font-weight="700" fill="#e8e8ed">4</text><text x="846.1" y="-202.54" text-anchor="middle" font-size="23" font-weight="700" fill="#e8e8ed">5</text><text x="846.1" y="-174.48" text-anchor="middle" font-size="23" font-weight="700" fill="#e8e8ed">6</text><text x="846.1" y="-146.42" text-anchor="middle" font-size="23" font-weight="700" fill="#e8e8ed">7</text><text x="846.1" y="-118.36" text-anchor="middle" font-size="23" font-weight="700" fill="#e8e8ed">8</text><text x="846.1" y="-90.3" text-anchor="middle" font-size="23" font-weight="700" fill="#e8e8ed">9</text><text x="846.1" y="-62.24" text-anchor="middle" font-size="23" font-weight="700" fill="#e8e8ed">0</text><text x="846.1" y="-34.18" text-anchor="middle" font-size="23" font-weight="700" fill="#e8e8ed">1</text><text x="846.1" y="-6.12" text-anchor="middle" font-size="23" font-weight="700" fill="#e8e8ed">2</text><text x="846.1" y="21.94" text-anchor="middle" font-size="23" font-weight="700" fill="#e8e8ed">3</text><text x="846.1" y="50" text-anchor="middle" font-size="23" font-weight="700" fill="#e8e8ed">4</text></g></g><g clip-path="url(#odo-c2-1)"><g class="odo-c2-1"><text x="859.9" y="-735.68" text-anchor="middle" font-size="23" font-weight="700" fill="#e8e8ed">0</text><text x="859.9" y="-707.62" text-anchor="middle" font-size="23" font-weight="700" fill="#e8e8ed">1</text><text x="859.9" y="-679.56" text-anchor="middle" font-size="23" font-weight="700" fill="#e8e8ed">2</text><text x="859.9" y="-651.5" text-anchor="middle" font-size="23" font-weight="700" fill="#e8e8ed">3</text><text x="859.9" y="-623.44" text-anchor="middle" font-size="23" font-weight="700" fill="#e8e8ed">4</text><text x="859.9" y="-595.38" text-anchor="middle" font-size="23" font-weight="700" fill="#e8e8ed">5</text><text x="859.9" y="-567.32" text-anchor="middle" font-size="23" font-weight="700" fill="#e8e8ed">6</text><text x="859.9" y="-539.26" text-anchor="middle" font-size="23" font-weight="700" fill="#e8e8ed">7</text><text x="859.9" y="-511.2" text-anchor="middle" font-size="23" font-weight="700" fill="#e8e8ed">8</text><text x="859.9" y="-483.14" text-anchor="middle" font-size="23" font-weight="700" fill="#e8e8ed">9</text><text x="859.9" y="-455.08" text-anchor="middle" font-size="23" font-weight="700" fill="#e8e8ed">0</text><text x="859.9" y="-427.02" text-anchor="middle" font-size="23" font-weight="700" fill="#e8e8ed">1</text><text x="859.9" y="-398.96" text-anchor="middle" font-size="23" font-weight="700" fill="#e8e8ed">2</text><text x="859.9" y="-370.9" text-anchor="middle" font-size="23" font-weight="700" fill="#e8e8ed">3</text><text x="859.9" y="-342.84" text-anchor="middle" font-size="23" font-weight="700" fill="#e8e8ed">4</text><text x="859.9" y="-314.78" text-anchor="middle" font-size="23" font-weight="700" fill="#e8e8ed">5</text><text x="859.9" y="-286.72" text-anchor="middle" font-size="23" font-weight="700" fill="#e8e8ed">6</text><text x="859.9" y="-258.66" text-anchor="middle" font-size="23" font-weight="700" fill="#e8e8ed">7</text><text x="859.9" y="-230.6" text-anchor="middle" font-size="23" font-weight="700" fill="#e8e8ed">8</text><text x="859.9" y="-202.54" text-anchor="middle" font-size="23" font-weight="700" fill="#e8e8ed">9</text><text x="859.9" y="-174.48" text-anchor="middle" font-size="23" font-weight="700" fill="#e8e8ed">0</text><text x="859.9" y="-146.42" text-anchor="middle" font-size="23" font-weight="700" fill="#e8e8ed">1</text><text x="859.9" y="-118.36" text-anchor="middle" font-size="23" font-weight="700" fill="#e8e8ed">2</text><text x="859.9" y="-90.3" text-anchor="middle" font-size="23" font-weight="700" fill="#e8e8ed">3</text><text x="859.9" y="-62.24" text-anchor="middle" font-size="23" font-weight="700" fill="#e8e8ed">4</text><text x="859.9" y="-34.18" text-anchor="middle" font-size="23" font-weight="700" fill="#e8e8ed">5</text><text x="859.9" y="-6.12" text-anchor="middle" font-size="23" font-weight="700" fill="#e8e8ed">6</text><text x="859.9" y="21.94" text-anchor="middle" font-size="23" font-weight="700" fill="#e8e8ed">7</text><text x="859.9" y="50" text-anchor="middle" font-size="23" font-weight="700" fill="#e8e8ed">8</text></g></g>
      <text x="853" y="67" text-anchor="middle" font-size="10.5" fill="#86868b">best day</text>
    </g>
    <g class="fi-ac" style="animation-delay:.3s">
      <line x1="104" y1="162" x2="916" y2="162" stroke="#ffffff" stroke-opacity="0.06" stroke-dasharray="3 7"/>
      <text x="94" y="166" text-anchor="end" font-size="10.5" fill="#86868b">24</text>
    </g><g class="fi-ac" style="animation-delay:.3s">
      <line x1="104" y1="92" x2="916" y2="92" stroke="#ffffff" stroke-opacity="0.06" stroke-dasharray="3 7"/>
      <text x="94" y="96" text-anchor="end" font-size="10.5" fill="#86868b">48</text>
    </g>
    <g><rect class="bar-ac" x="246.77" y="229.08" width="6.72" height="2.92" rx="2.5" fill="url(#barg-ac)" style="animation-delay:0.378s"><title>1 on 2026-05-19</title></rect><rect class="bar-ac" x="255.69" y="229.08" width="6.72" height="2.92" rx="2.5" fill="url(#barg-ac)" style="animation-delay:0.386s"><title>1 on 2026-05-20</title></rect><rect class="bar-ac" x="452" y="211.58" width="6.72" height="20.42" rx="2.5" fill="url(#barg-ac)" style="animation-delay:0.562s"><title>7 on 2026-06-11</title></rect><rect class="bar-ac" x="460.92" y="220.33" width="6.72" height="11.67" rx="2.5" fill="url(#barg-ac)" style="animation-delay:0.57s"><title>4 on 2026-06-12</title></rect><rect class="bar-ac" x="559.08" y="226.17" width="6.72" height="5.83" rx="2.5" fill="url(#barg-ac)" style="animation-delay:0.658s"><title>2 on 2026-06-23</title></rect><rect class="bar-ac" x="585.85" y="226.17" width="6.72" height="5.83" rx="2.5" fill="url(#barg-ac)" style="animation-delay:0.682s"><title>2 on 2026-06-26</title></rect><rect class="bar-ac" x="594.77" y="220.33" width="6.72" height="11.67" rx="2.5" fill="url(#barg-ac)" style="animation-delay:0.69s"><title>4 on 2026-06-27</title></rect><rect class="bar-ac" x="612.62" y="226.17" width="6.72" height="5.83" rx="2.5" fill="url(#barg-ac)" style="animation-delay:0.706s"><title>2 on 2026-06-29</title></rect><rect class="bar-ac" x="621.54" y="167.83" width="6.72" height="64.17" rx="2.5" fill="url(#barg-ac)" style="animation-delay:0.714s"><title>22 on 2026-06-30</title></rect><rect class="bar-ac" x="630.46" y="173.67" width="6.72" height="58.33" rx="2.5" fill="url(#barg-ac)" style="animation-delay:0.722s"><title>20 on 2026-07-01</title></rect><rect class="bar-ac" x="639.38" y="162" width="6.72" height="70" rx="2.5" fill="url(#barg-ac)" style="animation-delay:0.73s"><title>24 on 2026-07-02</title></rect><rect class="bar-ac" x="684" y="194.08" width="6.72" height="37.92" rx="2.5" fill="url(#barg-ac)" style="animation-delay:0.77s"><title>13 on 2026-07-07</title></rect><rect class="bar-ac" x="692.92" y="223.25" width="6.72" height="8.75" rx="2.5" fill="url(#barg-ac)" style="animation-delay:0.778s"><title>3 on 2026-07-08</title></rect><rect class="bar-ac" x="701.85" y="194.08" width="6.72" height="37.92" rx="2.5" fill="url(#barg-ac)" style="animation-delay:0.786s"><title>13 on 2026-07-09</title></rect><rect class="bar-ac" x="710.77" y="229.08" width="6.72" height="2.92" rx="2.5" fill="url(#barg-ac)" style="animation-delay:0.794s"><title>1 on 2026-07-10</title></rect><rect class="bar-ac" x="728.62" y="211.58" width="6.72" height="20.42" rx="2.5" fill="url(#barg-ac)" style="animation-delay:0.81s"><title>7 on 2026-07-12</title></rect><rect class="bar-ac" x="737.54" y="197" width="6.72" height="35" rx="2.5" fill="url(#barg-ac)" style="animation-delay:0.818s"><title>12 on 2026-07-13</title></rect><rect class="bar-ac" x="746.46" y="223.25" width="6.72" height="8.75" rx="2.5" fill="url(#barg-ac)" style="animation-delay:0.826s"><title>3 on 2026-07-14</title></rect><rect class="bar-ac" x="755.38" y="211.58" width="6.72" height="20.42" rx="2.5" fill="url(#barg-ac)" style="animation-delay:0.834s"><title>7 on 2026-07-15</title></rect><rect class="bar-ac" x="764.31" y="185.33" width="6.72" height="46.67" rx="2.5" fill="url(#barg-ac)" style="animation-delay:0.842s"><title>16 on 2026-07-16</title></rect><rect class="bar-ac" x="773.23" y="229.08" width="6.72" height="2.92" rx="2.5" fill="url(#barg-ac)" style="animation-delay:0.85s"><title>1 on 2026-07-17</title></rect><rect class="bar-ac" x="782.15" y="205.75" width="6.72" height="26.25" rx="2.5" fill="url(#barg-ac)" style="animation-delay:0.858s"><title>9 on 2026-07-18</title></rect><rect class="bar-ac" x="791.08" y="229.08" width="6.72" height="2.92" rx="2.5" fill="url(#barg-ac)" style="animation-delay:0.866s"><title>1 on 2026-07-19</title></rect><rect class="bar-ac" x="808.92" y="167.83" width="6.72" height="64.17" rx="2.5" fill="url(#barg-ac)" style="animation-delay:0.882s"><title>22 on 2026-07-21</title></rect><rect class="bar-ac" x="817.85" y="226.17" width="6.72" height="5.83" rx="2.5" fill="url(#barg-ac)" style="animation-delay:0.89s"><title>2 on 2026-07-22</title></rect><rect class="bar-ac" x="835.69" y="194.08" width="6.72" height="37.92" rx="2.5" fill="url(#barg-ac)" style="animation-delay:0.906s"><title>13 on 2026-07-24</title></rect><rect class="bar-ac" x="862.46" y="220.33" width="6.72" height="11.67" rx="2.5" fill="url(#barg-ac)" style="animation-delay:0.93s"><title>4 on 2026-07-27</title></rect><rect class="bar-ac" x="871.38" y="92" width="6.72" height="140" rx="2.5" fill="url(#barg-ac)" style="animation-delay:0.938s"><title>48 on 2026-07-28</title></rect><rect class="bar-ac" x="880.31" y="226.17" width="6.72" height="5.83" rx="2.5" fill="url(#barg-ac)" style="animation-delay:0.946s"><title>2 on 2026-07-29</title></rect></g>
    <g mask="url(#wipe-ac)"><path d="M107.36 232 L116.28 232 L125.21 232 L134.13 232 L143.05 232 L151.98 232 L160.9 232 L169.82 232 L178.75 232 L187.67 232 L196.59 232 L205.52 232 L214.44 232 L223.36 232 L232.28 232 L241.21 232 L250.13 231.58 L259.05 231.17 L267.98 231.17 L276.9 231.17 L285.82 231.17 L294.75 231.17 L303.67 231.17 L312.59 231.58 L321.52 232 L330.44 232 L339.36 232 L348.28 232 L357.21 232 L366.13 232 L375.05 232 L383.98 232 L392.9 232 L401.82 232 L410.75 232 L419.67 232 L428.59 232 L437.52 232 L446.44 232 L455.36 229.08 L464.28 227.42 L473.21 227.42 L482.13 227.42 L491.05 227.42 L499.98 227.42 L508.9 227.42 L517.82 230.33 L526.75 232 L535.67 232 L544.59 232 L553.52 232 L562.44 231.17 L571.36 231.17 L580.28 231.17 L589.21 230.33 L598.13 228.67 L607.05 228.67 L615.98 227.83 L624.9 219.5 L633.82 211.17 L642.75 201.17 L651.67 202 L660.59 203.67 L669.52 203.67 L678.44 204.5 L687.36 208.25 L696.28 215.33 L705.21 219.92 L714.13 219.5 L723.05 219.5 L731.98 216.58 L740.9 211.58 L749.82 215.75 L758.75 214.08 L767.67 212.83 L776.59 212.83 L785.52 209.08 L794.44 211.58 L803.36 216.58 L812.28 208.67 L821.21 210.75 L830.13 217.42 L839.05 212.42 L847.98 216.17 L856.9 216.58 L865.82 214.92 L874.75 204.08 L883.67 204.08 L892.59 204.08 L901.52 209.5 L910.44 209.5 L910.44 232 L107.36 232 Z" fill="url(#areag-ac)"/></g>
    <path class="line-ac" d="M107.36 232 L116.28 232 L125.21 232 L134.13 232 L143.05 232 L151.98 232 L160.9 232 L169.82 232 L178.75 232 L187.67 232 L196.59 232 L205.52 232 L214.44 232 L223.36 232 L232.28 232 L241.21 232 L250.13 231.58 L259.05 231.17 L267.98 231.17 L276.9 231.17 L285.82 231.17 L294.75 231.17 L303.67 231.17 L312.59 231.58 L321.52 232 L330.44 232 L339.36 232 L348.28 232 L357.21 232 L366.13 232 L375.05 232 L383.98 232 L392.9 232 L401.82 232 L410.75 232 L419.67 232 L428.59 232 L437.52 232 L446.44 232 L455.36 229.08 L464.28 227.42 L473.21 227.42 L482.13 227.42 L491.05 227.42 L499.98 227.42 L508.9 227.42 L517.82 230.33 L526.75 232 L535.67 232 L544.59 232 L553.52 232 L562.44 231.17 L571.36 231.17 L580.28 231.17 L589.21 230.33 L598.13 228.67 L607.05 228.67 L615.98 227.83 L624.9 219.5 L633.82 211.17 L642.75 201.17 L651.67 202 L660.59 203.67 L669.52 203.67 L678.44 204.5 L687.36 208.25 L696.28 215.33 L705.21 219.92 L714.13 219.5 L723.05 219.5 L731.98 216.58 L740.9 211.58 L749.82 215.75 L758.75 214.08 L767.67 212.83 L776.59 212.83 L785.52 209.08 L794.44 211.58 L803.36 216.58 L812.28 208.67 L821.21 210.75 L830.13 217.42 L839.05 212.42 L847.98 216.17 L856.9 216.58 L865.82 214.92 L874.75 204.08 L883.67 204.08 L892.59 204.08 L901.52 209.5 L910.44 209.5" fill="none" stroke="#2997ff" stroke-width="2.25" stroke-linecap="round" stroke-linejoin="round"/>
    <circle class="ring-ac" cx="910.44" cy="209.5" r="4" fill="none" stroke="#2997ff" stroke-width="1.5"/>
    <circle class="dot-ac" cx="910.44" cy="209.5" r="4" fill="#2997ff"/>
    <line x1="104" y1="232" x2="916" y2="232" stroke="#ffffff" stroke-opacity="0.14"/>
    <text class="fi-ac" x="104" y="256" font-size="11" fill="#86868b" style="animation-delay:0.9s">May</text><text class="fi-ac" x="362.77" y="256" font-size="11" fill="#86868b" style="animation-delay:1.02s">Jun</text><text class="fi-ac" x="630.46" y="256" font-size="11" fill="#86868b" style="animation-delay:1.14s">Jul</text><text class="fi-ac" x="907.08" y="256" font-size="11" fill="#86868b" style="animation-delay:1.26s">Aug</text>
    <text class="fi-ac" x="104" y="278" font-size="11.5" fill="#86868b" style="animation-delay:1.4s">29 active days in the window · peak 48 in a day · 7-day average</text>
    
  <g class="sh-ac"><rect x="-200" y="-60" width="110" height="420" fill="url(#sheen-ac)" transform="skewX(-14)"/></g>
  <style>@keyframes sw-ac{0%{transform:translateX(0)}55%,100%{transform:translateX(1320px)}}
  .sh-ac{animation:sw-ac 10s ease-in-out infinite;animation-delay:3s}</style>
  </g>
</svg>
