<svg xmlns="http://www.w3.org/2000/svg" width="1000" height="300" viewBox="0 0 1000 300" role="img" aria-label="Daily commit activity over the last 13 weeks: 1031 contributions, 401 in the last 30 days, peak of 136 in a single day, 54 active days.">
  <defs>
    <linearGradient id="metal-ac" x1="0" y1="0" x2="1" y2="0.25">
      <stop offset="0" stop-color="#f5f5f7"/>
      <stop offset="0.55" stop-color="#c8ccd8"/>
      <stop offset="1" stop-color="#8e93a6"/>
    </linearGradient>
    <radialGradient id="glow-ac" cx="0.5" cy="0.5" r="0.5">
      <stop offset="0" stop-color="#2b46b8"/>
      <stop offset="1" stop-color="#2b46b8" stop-opacity="0"/>
    </radialGradient>
    <linearGradient id="topline-ac" x1="0" y1="0" x2="1" y2="0">
      <stop offset="0" stop-color="#ffffff" stop-opacity="0"/>
      <stop offset="0.5" stop-color="#ffffff" stop-opacity="0.35"/>
      <stop offset="1" stop-color="#ffffff" stop-opacity="0"/>
    </linearGradient>
    <linearGradient id="sheen-ac" x1="0" y1="0" x2="1" y2="0">
      <stop offset="0" stop-color="#ffffff" stop-opacity="0"/>
      <stop offset="0.5" stop-color="#ffffff" stop-opacity="0.1"/>
      <stop offset="1" stop-color="#ffffff" stop-opacity="0"/>
    </linearGradient>
    <clipPath id="frame-ac"><rect width="1000" height="300" rx="28"/></clipPath><clipPath id="odo-c0-0"><rect x="548.95" y="30.22" width="15.8" height="26.22"/></clipPath><clipPath id="odo-c0-1"><rect x="569.65" y="30.22" width="15.8" height="26.22"/></clipPath><clipPath id="odo-c0-2"><rect x="583.45" y="30.22" width="15.8" height="26.22"/></clipPath><clipPath id="odo-c0-3"><rect x="597.25" y="30.22" width="15.8" height="26.22"/></clipPath><clipPath id="odo-c1-0"><rect x="695.3" y="30.22" width="15.8" height="26.22"/></clipPath><clipPath id="odo-c1-1"><rect x="709.1" y="30.22" width="15.8" height="26.22"/></clipPath><clipPath id="odo-c1-2"><rect x="722.9" y="30.22" width="15.8" height="26.22"/></clipPath><clipPath id="odo-c2-0"><rect x="831.3" y="30.22" width="15.8" height="26.22"/></clipPath><clipPath id="odo-c2-1"><rect x="845.1" y="30.22" width="15.8" height="26.22"/></clipPath><clipPath id="odo-c2-2"><rect x="858.9" y="30.22" width="15.8" height="26.22"/></clipPath>
      <linearGradient id="barg-ac" x1="0" y1="0" x2="0" y2="1">
        <stop offset="0" stop-color="#5fb2ff" stop-opacity="0.9"/>
        <stop offset="1" stop-color="#1857b0" stop-opacity="0.4"/>
      </linearGradient>
      <linearGradient id="areag-ac" x1="0" y1="0" x2="0" y2="1">
        <stop offset="0" stop-color="#2997ff" stop-opacity="0.28"/>
        <stop offset="1" stop-color="#2997ff" stop-opacity="0"/>
      </linearGradient>
      <mask id="wipe-ac"><rect x="104" y="0" width="812" height="300" fill="#ffffff">
        <animate attributeName="width" values="0;812" begin="0.45s" dur="1.9s" fill="freeze" calcMode="spline" keySplines="0.35 0.1 0.3 1" keyTimes="0;1"/>
      </rect></mask></defs>
  <style>
    text{font-family:-apple-system,BlinkMacSystemFont,'SF Pro Display','Segoe UI',Helvetica,Arial,sans-serif;font-variant-numeric:tabular-nums;font-feature-settings:"tnum" 1}
    @keyframes tw-ac{0%,100%{opacity:.12}50%{opacity:.85}}
    .st-ac{animation:tw-ac 4.2s ease-in-out infinite}
    @keyframes pl-ac{0%,100%{opacity:.45}50%{opacity:.75}}
    .gl-ac{animation:pl-ac 8s ease-in-out infinite}
    @keyframes fu-ac{0%{opacity:0;transform:translateY(10px)}100%{opacity:1;transform:translateY(0)}}
    .fu-ac{animation:fu-ac .8s cubic-bezier(.25,.1,.25,1) both}
    @keyframes fi-ac{0%{opacity:0}100%{opacity:1}}
    .fi-ac{animation:fi-ac .7s ease-out both}
    @keyframes fl-ac{0%,100%{transform:translateY(0)}50%{transform:translateY(-4px)}}
    .fl-ac{animation:fl-ac 6.5s ease-in-out infinite}
  
      @keyframes gb-ac{0%{transform:scaleY(0)}100%{transform:scaleY(1)}}
      .bar-ac{transform-box:fill-box;transform-origin:bottom;animation:gb-ac .6s cubic-bezier(.25,.1,.25,1) both}
      @keyframes pd-ac{0%,100%{opacity:.75}50%{opacity:1}}
      .dot-ac{animation:fi-ac .4s ease-out 2.3s both,pd-ac 2.2s ease-in-out 2.7s infinite}
      @keyframes rp-ac{0%{r:4;opacity:.7}100%{r:16;opacity:0}}
      .ring-ac{opacity:0;animation:rp-ac 2.4s ease-out 2.5s infinite}
      @keyframes draw-ac{0%{stroke-dashoffset:852.9}100%{stroke-dashoffset:0}}.line-ac{stroke-dasharray:852.9;animation:draw-ac 1.9s cubic-bezier(.35,.1,.3,1) both;animation-delay:.45s}@keyframes or-c0-0{0%{transform:translateY(589.26px)}100%{transform:translateY(0)}}.odo-c0-0{animation:or-c0-0 1.6s cubic-bezier(.16,.84,.36,1) both;animation-delay:0.35s}@keyframes or-c0-1{0%{transform:translateY(561.2px)}100%{transform:translateY(0)}}.odo-c0-1{animation:or-c0-1 1.6s cubic-bezier(.16,.84,.36,1) both;animation-delay:0.44s}@keyframes or-c0-2{0%{transform:translateY(645.38px)}100%{transform:translateY(0)}}.odo-c0-2{animation:or-c0-2 1.6s cubic-bezier(.16,.84,.36,1) both;animation-delay:0.53s}@keyframes or-c0-3{0%{transform:translateY(589.26px)}100%{transform:translateY(0)}}.odo-c0-3{animation:or-c0-3 1.6s cubic-bezier(.16,.84,.36,1) both;animation-delay:0.62s}@keyframes or-c1-0{0%{transform:translateY(673.44px)}100%{transform:translateY(0)}}.odo-c1-0{animation:or-c1-0 1.6s cubic-bezier(.16,.84,.36,1) both;animation-delay:0.46s}@keyframes or-c1-1{0%{transform:translateY(561.2px)}100%{transform:translateY(0)}}.odo-c1-1{animation:or-c1-1 1.6s cubic-bezier(.16,.84,.36,1) both;animation-delay:0.55s}@keyframes or-c1-2{0%{transform:translateY(589.26px)}100%{transform:translateY(0)}}.odo-c1-2{animation:or-c1-2 1.6s cubic-bezier(.16,.84,.36,1) both;animation-delay:0.64s}@keyframes or-c2-0{0%{transform:translateY(589.26px)}100%{transform:translateY(0)}}.odo-c2-0{animation:or-c2-0 1.6s cubic-bezier(.16,.84,.36,1) both;animation-delay:0.57s}@keyframes or-c2-1{0%{transform:translateY(645.38px)}100%{transform:translateY(0)}}.odo-c2-1{animation:or-c2-1 1.6s cubic-bezier(.16,.84,.36,1) both;animation-delay:0.66s}@keyframes or-c2-2{0%{transform:translateY(729.56px)}100%{transform:translateY(0)}}.odo-c2-2{animation:or-c2-2 1.6s cubic-bezier(.16,.84,.36,1) both;animation-delay:0.75s}</style>

  <g clip-path="url(#frame-ac)">
    <rect width="1000" height="300" fill="#000000"/>
    <g fill="#ffffff"><circle class="st-ac" cx="484" cy="185" r="1.3" style="animation-delay:-0.4s"/><circle class="st-ac" cx="368" cy="90" r="1.2" style="animation-delay:-1.5s"/><circle class="st-ac" cx="244" cy="71" r="1.5" style="animation-delay:-4.2s"/><circle class="st-ac" cx="154" cy="172" r="1.4" style="animation-delay:-3.7s"/><circle class="st-ac" cx="780" cy="31" r="1.3" style="animation-delay:-2.1s"/><circle class="st-ac" cx="51" cy="74" r="1.1" style="animation-delay:-4s"/><circle class="st-ac" cx="147" cy="100" r="1.1" style="animation-delay:-2.5s"/><circle class="st-ac" cx="998" cy="220" r="1" style="animation-delay:-1.9s"/><circle class="st-ac" cx="75" cy="42" r="1.4" style="animation-delay:-0.3s"/><circle class="st-ac" cx="817" cy="26" r="1.2" style="animation-delay:-1.2s"/><circle class="st-ac" cx="612" cy="247" r="1.1" style="animation-delay:-1s"/><circle class="st-ac" cx="987" cy="220" r="0.9" style="animation-delay:-4s"/></g>
    <ellipse class="gl-ac" cx="500" cy="350" rx="430" ry="140" fill="url(#glow-ac)" opacity="0.4"/>
    <text x="56" y="46" text-anchor="start" font-size="12" font-weight="600" letter-spacing="3" fill="#86868b">DAILY ACTIVITY · 13 WEEKS</text>
    <g class="fu-ac" style="animation-delay:0.2s">
      <rect x="518" y="24" width="126" height="52" rx="15" fill="#ffffff" fill-opacity="0.05" stroke="#ffffff" stroke-opacity="0.14"/>
      <g clip-path="url(#odo-c0-0)"><g class="odo-c0-0"><text x="556.85" y="-539.26" text-anchor="middle" font-size="23" font-weight="700" fill="#e8e8ed">0</text><text x="556.85" y="-511.2" text-anchor="middle" font-size="23" font-weight="700" fill="#e8e8ed">1</text><text x="556.85" y="-483.14" text-anchor="middle" font-size="23" font-weight="700" fill="#e8e8ed">2</text><text x="556.85" y="-455.08" text-anchor="middle" font-size="23" font-weight="700" fill="#e8e8ed">3</text><text x="556.85" y="-427.02" text-anchor="middle" font-size="23" font-weight="700" fill="#e8e8ed">4</text><text x="556.85" y="-398.96" text-anchor="middle" font-size="23" font-weight="700" fill="#e8e8ed">5</text><text x="556.85" y="-370.9" text-anchor="middle" font-size="23" font-weight="700" fill="#e8e8ed">6</text><text x="556.85" y="-342.84" text-anchor="middle" font-size="23" font-weight="700" fill="#e8e8ed">7</text><text x="556.85" y="-314.78" text-anchor="middle" font-size="23" font-weight="700" fill="#e8e8ed">8</text><text x="556.85" y="-286.72" text-anchor="middle" font-size="23" font-weight="700" fill="#e8e8ed">9</text><text x="556.85" y="-258.66" text-anchor="middle" font-size="23" font-weight="700" fill="#e8e8ed">0</text><text x="556.85" y="-230.6" text-anchor="middle" font-size="23" font-weight="700" fill="#e8e8ed">1</text><text x="556.85" y="-202.54" text-anchor="middle" font-size="23" font-weight="700" fill="#e8e8ed">2</text><text x="556.85" y="-174.48" text-anchor="middle" font-size="23" font-weight="700" fill="#e8e8ed">3</text><text x="556.85" y="-146.42" text-anchor="middle" font-size="23" font-weight="700" fill="#e8e8ed">4</text><text x="556.85" y="-118.36" text-anchor="middle" font-size="23" font-weight="700" fill="#e8e8ed">5</text><text x="556.85" y="-90.3" text-anchor="middle" font-size="23" font-weight="700" fill="#e8e8ed">6</text><text x="556.85" y="-62.24" text-anchor="middle" font-size="23" font-weight="700" fill="#e8e8ed">7</text><text x="556.85" y="-34.18" text-anchor="middle" font-size="23" font-weight="700" fill="#e8e8ed">8</text><text x="556.85" y="-6.12" text-anchor="middle" font-size="23" font-weight="700" fill="#e8e8ed">9</text><text x="556.85" y="21.94" text-anchor="middle" font-size="23" font-weight="700" fill="#e8e8ed">0</text><text x="556.85" y="50" text-anchor="middle" font-size="23" font-weight="700" fill="#e8e8ed">1</text></g></g><text class="fi-ac" x="567.2" y="50" text-anchor="middle" font-size="23" font-weight="700" fill="#e8e8ed" style="animation-delay:0.85s">,</text><g clip-path="url(#odo-c0-1)"><g class="odo-c0-1"><text x="577.55" y="-511.2" text-anchor="middle" font-size="23" font-weight="700" fill="#e8e8ed">0</text><text x="577.55" y="-483.14" text-anchor="middle" font-size="23" font-weight="700" fill="#e8e8ed">1</text><text x="577.55" y="-455.08" text-anchor="middle" font-size="23" font-weight="700" fill="#e8e8ed">2</text><text x="577.55" y="-427.02" text-anchor="middle" font-size="23" font-weight="700" fill="#e8e8ed">3</text><text x="577.55" y="-398.96" text-anchor="middle" font-size="23" font-weight="700" fill="#e8e8ed">4</text><text x="577.55" y="-370.9" text-anchor="middle" font-size="23" font-weight="700" fill="#e8e8ed">5</text><text x="577.55" y="-342.84" text-anchor="middle" font-size="23" font-weight="700" fill="#e8e8ed">6</text><text x="577.55" y="-314.78" text-anchor="middle" font-size="23" font-weight="700" fill="#e8e8ed">7</text><text x="577.55" y="-286.72" text-anchor="middle" font-size="23" font-weight="700" fill="#e8e8ed">8</text><text x="577.55" y="-258.66" text-anchor="middle" font-size="23" font-weight="700" fill="#e8e8ed">9</text><text x="577.55" y="-230.6" text-anchor="middle" font-size="23" font-weight="700" fill="#e8e8ed">0</text><text x="577.55" y="-202.54" text-anchor="middle" font-size="23" font-weight="700" fill="#e8e8ed">1</text><text x="577.55" y="-174.48" text-anchor="middle" font-size="23" font-weight="700" fill="#e8e8ed">2</text><text x="577.55" y="-146.42" text-anchor="middle" font-size="23" font-weight="700" fill="#e8e8ed">3</text><text x="577.55" y="-118.36" text-anchor="middle" font-size="23" font-weight="700" fill="#e8e8ed">4</text><text x="577.55" y="-90.3" text-anchor="middle" font-size="23" font-weight="700" fill="#e8e8ed">5</text><text x="577.55" y="-62.24" text-anchor="middle" font-size="23" font-weight="700" fill="#e8e8ed">6</text><text x="577.55" y="-34.18" text-anchor="middle" font-size="23" font-weight="700" fill="#e8e8ed">7</text><text x="577.55" y="-6.12" text-anchor="middle" font-size="23" font-weight="700" fill="#e8e8ed">8</text><text x="577.55" y="21.94" text-anchor="middle" font-size="23" font-weight="700" fill="#e8e8ed">9</text><text x="577.55" y="50" text-anchor="middle" font-size="23" font-weight="700" fill="#e8e8ed">0</text></g></g><g clip-path="url(#odo-c0-2)"><g class="odo-c0-2"><text x="591.3499999999999" y="-595.38" text-anchor="middle" font-size="23" font-weight="700" fill="#e8e8ed">0</text><text x="591.3499999999999" y="-567.32" text-anchor="middle" font-size="23" font-weight="700" fill="#e8e8ed">1</text><text x="591.3499999999999" y="-539.26" text-anchor="middle" font-size="23" font-weight="700" fill="#e8e8ed">2</text><text x="591.3499999999999" y="-511.2" text-anchor="middle" font-size="23" font-weight="700" fill="#e8e8ed">3</text><text x="591.3499999999999" y="-483.14" text-anchor="middle" font-size="23" font-weight="700" fill="#e8e8ed">4</text><text x="591.3499999999999" y="-455.08" text-anchor="middle" font-size="23" font-weight="700" fill="#e8e8ed">5</text><text x="591.3499999999999" y="-427.02" text-anchor="middle" font-size="23" font-weight="700" fill="#e8e8ed">6</text><text x="591.3499999999999" y="-398.96" text-anchor="middle" font-size="23" font-weight="700" fill="#e8e8ed">7</text><text x="591.3499999999999" y="-370.9" text-anchor="middle" font-size="23" font-weight="700" fill="#e8e8ed">8</text><text x="591.3499999999999" y="-342.84" text-anchor="middle" font-size="23" font-weight="700" fill="#e8e8ed">9</text><text x="591.3499999999999" y="-314.78" text-anchor="middle" font-size="23" font-weight="700" fill="#e8e8ed">0</text><text x="591.3499999999999" y="-286.72" text-anchor="middle" font-size="23" font-weight="700" fill="#e8e8ed">1</text><text x="591.3499999999999" y="-258.66" text-anchor="middle" font-size="23" font-weight="700" fill="#e8e8ed">2</text><text x="591.3499999999999" y="-230.6" text-anchor="middle" font-size="23" font-weight="700" fill="#e8e8ed">3</text><text x="591.3499999999999" y="-202.54" text-anchor="middle" font-size="23" font-weight="700" fill="#e8e8ed">4</text><text x="591.3499999999999" y="-174.48" text-anchor="middle" font-size="23" font-weight="700" fill="#e8e8ed">5</text><text x="591.3499999999999" y="-146.42" text-anchor="middle" font-size="23" font-weight="700" fill="#e8e8ed">6</text><text x="591.3499999999999" y="-118.36" text-anchor="middle" font-size="23" font-weight="700" fill="#e8e8ed">7</text><text x="591.3499999999999" y="-90.3" text-anchor="middle" font-size="23" font-weight="700" fill="#e8e8ed">8</text><text x="591.3499999999999" y="-62.24" text-anchor="middle" font-size="23" font-weight="700" fill="#e8e8ed">9</text><text x="591.3499999999999" y="-34.18" text-anchor="middle" font-size="23" font-weight="700" fill="#e8e8ed">0</text><text x="591.3499999999999" y="-6.12" text-anchor="middle" font-size="23" font-weight="700" fill="#e8e8ed">1</text><text x="591.3499999999999" y="21.94" text-anchor="middle" font-size="23" font-weight="700" fill="#e8e8ed">2</text><text x="591.3499999999999" y="50" text-anchor="middle" font-size="23" font-weight="700" fill="#e8e8ed">3</text></g></g><g clip-path="url(#odo-c0-3)"><g class="odo-c0-3"><text x="605.1499999999999" y="-539.26" text-anchor="middle" font-size="23" font-weight="700" fill="#e8e8ed">0</text><text x="605.1499999999999" y="-511.2" text-anchor="middle" font-size="23" font-weight="700" fill="#e8e8ed">1</text><text x="605.1499999999999" y="-483.14" text-anchor="middle" font-size="23" font-weight="700" fill="#e8e8ed">2</text><text x="605.1499999999999" y="-455.08" text-anchor="middle" font-size="23" font-weight="700" fill="#e8e8ed">3</text><text x="605.1499999999999" y="-427.02" text-anchor="middle" font-size="23" font-weight="700" fill="#e8e8ed">4</text><text x="605.1499999999999" y="-398.96" text-anchor="middle" font-size="23" font-weight="700" fill="#e8e8ed">5</text><text x="605.1499999999999" y="-370.9" text-anchor="middle" font-size="23" font-weight="700" fill="#e8e8ed">6</text><text x="605.1499999999999" y="-342.84" text-anchor="middle" font-size="23" font-weight="700" fill="#e8e8ed">7</text><text x="605.1499999999999" y="-314.78" text-anchor="middle" font-size="23" font-weight="700" fill="#e8e8ed">8</text><text x="605.1499999999999" y="-286.72" text-anchor="middle" font-size="23" font-weight="700" fill="#e8e8ed">9</text><text x="605.1499999999999" y="-258.66" text-anchor="middle" font-size="23" font-weight="700" fill="#e8e8ed">0</text><text x="605.1499999999999" y="-230.6" text-anchor="middle" font-size="23" font-weight="700" fill="#e8e8ed">1</text><text x="605.1499999999999" y="-202.54" text-anchor="middle" font-size="23" font-weight="700" fill="#e8e8ed">2</text><text x="605.1499999999999" y="-174.48" text-anchor="middle" font-size="23" font-weight="700" fill="#e8e8ed">3</text><text x="605.1499999999999" y="-146.42" text-anchor="middle" font-size="23" font-weight="700" fill="#e8e8ed">4</text><text x="605.1499999999999" y="-118.36" text-anchor="middle" font-size="23" font-weight="700" fill="#e8e8ed">5</text><text x="605.1499999999999" y="-90.3" text-anchor="middle" font-size="23" font-weight="700" fill="#e8e8ed">6</text><text x="605.1499999999999" y="-62.24" text-anchor="middle" font-size="23" font-weight="700" fill="#e8e8ed">7</text><text x="605.1499999999999" y="-34.18" text-anchor="middle" font-size="23" font-weight="700" fill="#e8e8ed">8</text><text x="605.1499999999999" y="-6.12" text-anchor="middle" font-size="23" font-weight="700" fill="#e8e8ed">9</text><text x="605.1499999999999" y="21.94" text-anchor="middle" font-size="23" font-weight="700" fill="#e8e8ed">0</text><text x="605.1499999999999" y="50" text-anchor="middle" font-size="23" font-weight="700" fill="#e8e8ed">1</text></g></g>
      <text x="581" y="67" text-anchor="middle" font-size="10.5" fill="#86868b">last 13 weeks</text>
    </g><g class="fu-ac" style="animation-delay:0.31s">
      <rect x="654" y="24" width="126" height="52" rx="15" fill="#ffffff" fill-opacity="0.05" stroke="#ffffff" stroke-opacity="0.14"/>
      <g clip-path="url(#odo-c1-0)"><g class="odo-c1-0"><text x="703.1999999999999" y="-623.44" text-anchor="middle" font-size="23" font-weight="700" fill="#e8e8ed">0</text><text x="703.1999999999999" y="-595.38" text-anchor="middle" font-size="23" font-weight="700" fill="#e8e8ed">1</text><text x="703.1999999999999" y="-567.32" text-anchor="middle" font-size="23" font-weight="700" fill="#e8e8ed">2</text><text x="703.1999999999999" y="-539.26" text-anchor="middle" font-size="23" font-weight="700" fill="#e8e8ed">3</text><text x="703.1999999999999" y="-511.2" text-anchor="middle" font-size="23" font-weight="700" fill="#e8e8ed">4</text><text x="703.1999999999999" y="-483.14" text-anchor="middle" font-size="23" font-weight="700" fill="#e8e8ed">5</text><text x="703.1999999999999" y="-455.08" text-anchor="middle" font-size="23" font-weight="700" fill="#e8e8ed">6</text><text x="703.1999999999999" y="-427.02" text-anchor="middle" font-size="23" font-weight="700" fill="#e8e8ed">7</text><text x="703.1999999999999" y="-398.96" text-anchor="middle" font-size="23" font-weight="700" fill="#e8e8ed">8</text><text x="703.1999999999999" y="-370.9" text-anchor="middle" font-size="23" font-weight="700" fill="#e8e8ed">9</text><text x="703.1999999999999" y="-342.84" text-anchor="middle" font-size="23" font-weight="700" fill="#e8e8ed">0</text><text x="703.1999999999999" y="-314.78" text-anchor="middle" font-size="23" font-weight="700" fill="#e8e8ed">1</text><text x="703.1999999999999" y="-286.72" text-anchor="middle" font-size="23" font-weight="700" fill="#e8e8ed">2</text><text x="703.1999999999999" y="-258.66" text-anchor="middle" font-size="23" font-weight="700" fill="#e8e8ed">3</text><text x="703.1999999999999" y="-230.6" text-anchor="middle" font-size="23" font-weight="700" fill="#e8e8ed">4</text><text x="703.1999999999999" y="-202.54" text-anchor="middle" font-size="23" font-weight="700" fill="#e8e8ed">5</text><text x="703.1999999999999" y="-174.48" text-anchor="middle" font-size="23" font-weight="700" fill="#e8e8ed">6</text><text x="703.1999999999999" y="-146.42" text-anchor="middle" font-size="23" font-weight="700" fill="#e8e8ed">7</text><text x="703.1999999999999" y="-118.36" text-anchor="middle" font-size="23" font-weight="700" fill="#e8e8ed">8</text><text x="703.1999999999999" y="-90.3" text-anchor="middle" font-size="23" font-weight="700" fill="#e8e8ed">9</text><text x="703.1999999999999" y="-62.24" text-anchor="middle" font-size="23" font-weight="700" fill="#e8e8ed">0</text><text x="703.1999999999999" y="-34.18" text-anchor="middle" font-size="23" font-weight="700" fill="#e8e8ed">1</text><text x="703.1999999999999" y="-6.12" text-anchor="middle" font-size="23" font-weight="700" fill="#e8e8ed">2</text><text x="703.1999999999999" y="21.94" text-anchor="middle" font-size="23" font-weight="700" fill="#e8e8ed">3</text><text x="703.1999999999999" y="50" text-anchor="middle" font-size="23" font-weight="700" fill="#e8e8ed">4</text></g></g><g clip-path="url(#odo-c1-1)"><g class="odo-c1-1"><text x="716.9999999999999" y="-511.2" text-anchor="middle" font-size="23" font-weight="700" fill="#e8e8ed">0</text><text x="716.9999999999999" y="-483.14" text-anchor="middle" font-size="23" font-weight="700" fill="#e8e8ed">1</text><text x="716.9999999999999" y="-455.08" text-anchor="middle" font-size="23" font-weight="700" fill="#e8e8ed">2</text><text x="716.9999999999999" y="-427.02" text-anchor="middle" font-size="23" font-weight="700" fill="#e8e8ed">3</text><text x="716.9999999999999" y="-398.96" text-anchor="middle" font-size="23" font-weight="700" fill="#e8e8ed">4</text><text x="716.9999999999999" y="-370.9" text-anchor="middle" font-size="23" font-weight="700" fill="#e8e8ed">5</text><text x="716.9999999999999" y="-342.84" text-anchor="middle" font-size="23" font-weight="700" fill="#e8e8ed">6</text><text x="716.9999999999999" y="-314.78" text-anchor="middle" font-size="23" font-weight="700" fill="#e8e8ed">7</text><text x="716.9999999999999" y="-286.72" text-anchor="middle" font-size="23" font-weight="700" fill="#e8e8ed">8</text><text x="716.9999999999999" y="-258.66" text-anchor="middle" font-size="23" font-weight="700" fill="#e8e8ed">9</text><text x="716.9999999999999" y="-230.6" text-anchor="middle" font-size="23" font-weight="700" fill="#e8e8ed">0</text><text x="716.9999999999999" y="-202.54" text-anchor="middle" font-size="23" font-weight="700" fill="#e8e8ed">1</text><text x="716.9999999999999" y="-174.48" text-anchor="middle" font-size="23" font-weight="700" fill="#e8e8ed">2</text><text x="716.9999999999999" y="-146.42" text-anchor="middle" font-size="23" font-weight="700" fill="#e8e8ed">3</text><text x="716.9999999999999" y="-118.36" text-anchor="middle" font-size="23" font-weight="700" fill="#e8e8ed">4</text><text x="716.9999999999999" y="-90.3" text-anchor="middle" font-size="23" font-weight="700" fill="#e8e8ed">5</text><text x="716.9999999999999" y="-62.24" text-anchor="middle" font-size="23" font-weight="700" fill="#e8e8ed">6</text><text x="716.9999999999999" y="-34.18" text-anchor="middle" font-size="23" font-weight="700" fill="#e8e8ed">7</text><text x="716.9999999999999" y="-6.12" text-anchor="middle" font-size="23" font-weight="700" fill="#e8e8ed">8</text><text x="716.9999999999999" y="21.94" text-anchor="middle" font-size="23" font-weight="700" fill="#e8e8ed">9</text><text x="716.9999999999999" y="50" text-anchor="middle" font-size="23" font-weight="700" fill="#e8e8ed">0</text></g></g><g clip-path="url(#odo-c1-2)"><g class="odo-c1-2"><text x="730.7999999999998" y="-539.26" text-anchor="middle" font-size="23" font-weight="700" fill="#e8e8ed">0</text><text x="730.7999999999998" y="-511.2" text-anchor="middle" font-size="23" font-weight="700" fill="#e8e8ed">1</text><text x="730.7999999999998" y="-483.14" text-anchor="middle" font-size="23" font-weight="700" fill="#e8e8ed">2</text><text x="730.7999999999998" y="-455.08" text-anchor="middle" font-size="23" font-weight="700" fill="#e8e8ed">3</text><text x="730.7999999999998" y="-427.02" text-anchor="middle" font-size="23" font-weight="700" fill="#e8e8ed">4</text><text x="730.7999999999998" y="-398.96" text-anchor="middle" font-size="23" font-weight="700" fill="#e8e8ed">5</text><text x="730.7999999999998" y="-370.9" text-anchor="middle" font-size="23" font-weight="700" fill="#e8e8ed">6</text><text x="730.7999999999998" y="-342.84" text-anchor="middle" font-size="23" font-weight="700" fill="#e8e8ed">7</text><text x="730.7999999999998" y="-314.78" text-anchor="middle" font-size="23" font-weight="700" fill="#e8e8ed">8</text><text x="730.7999999999998" y="-286.72" text-anchor="middle" font-size="23" font-weight="700" fill="#e8e8ed">9</text><text x="730.7999999999998" y="-258.66" text-anchor="middle" font-size="23" font-weight="700" fill="#e8e8ed">0</text><text x="730.7999999999998" y="-230.6" text-anchor="middle" font-size="23" font-weight="700" fill="#e8e8ed">1</text><text x="730.7999999999998" y="-202.54" text-anchor="middle" font-size="23" font-weight="700" fill="#e8e8ed">2</text><text x="730.7999999999998" y="-174.48" text-anchor="middle" font-size="23" font-weight="700" fill="#e8e8ed">3</text><text x="730.7999999999998" y="-146.42" text-anchor="middle" font-size="23" font-weight="700" fill="#e8e8ed">4</text><text x="730.7999999999998" y="-118.36" text-anchor="middle" font-size="23" font-weight="700" fill="#e8e8ed">5</text><text x="730.7999999999998" y="-90.3" text-anchor="middle" font-size="23" font-weight="700" fill="#e8e8ed">6</text><text x="730.7999999999998" y="-62.24" text-anchor="middle" font-size="23" font-weight="700" fill="#e8e8ed">7</text><text x="730.7999999999998" y="-34.18" text-anchor="middle" font-size="23" font-weight="700" fill="#e8e8ed">8</text><text x="730.7999999999998" y="-6.12" text-anchor="middle" font-size="23" font-weight="700" fill="#e8e8ed">9</text><text x="730.7999999999998" y="21.94" text-anchor="middle" font-size="23" font-weight="700" fill="#e8e8ed">0</text><text x="730.7999999999998" y="50" text-anchor="middle" font-size="23" font-weight="700" fill="#e8e8ed">1</text></g></g>
      <text x="717" y="67" text-anchor="middle" font-size="10.5" fill="#86868b">last 30 days</text>
    </g><g class="fu-ac" style="animation-delay:0.42s">
      <rect x="790" y="24" width="126" height="52" rx="15" fill="#ffffff" fill-opacity="0.05" stroke="#ffffff" stroke-opacity="0.14"/>
      <g clip-path="url(#odo-c2-0)"><g class="odo-c2-0"><text x="839.1999999999999" y="-539.26" text-anchor="middle" font-size="23" font-weight="700" fill="#e8e8ed">0</text><text x="839.1999999999999" y="-511.2" text-anchor="middle" font-size="23" font-weight="700" fill="#e8e8ed">1</text><text x="839.1999999999999" y="-483.14" text-anchor="middle" font-size="23" font-weight="700" fill="#e8e8ed">2</text><text x="839.1999999999999" y="-455.08" text-anchor="middle" font-size="23" font-weight="700" fill="#e8e8ed">3</text><text x="839.1999999999999" y="-427.02" text-anchor="middle" font-size="23" font-weight="700" fill="#e8e8ed">4</text><text x="839.1999999999999" y="-398.96" text-anchor="middle" font-size="23" font-weight="700" fill="#e8e8ed">5</text><text x="839.1999999999999" y="-370.9" text-anchor="middle" font-size="23" font-weight="700" fill="#e8e8ed">6</text><text x="839.1999999999999" y="-342.84" text-anchor="middle" font-size="23" font-weight="700" fill="#e8e8ed">7</text><text x="839.1999999999999" y="-314.78" text-anchor="middle" font-size="23" font-weight="700" fill="#e8e8ed">8</text><text x="839.1999999999999" y="-286.72" text-anchor="middle" font-size="23" font-weight="700" fill="#e8e8ed">9</text><text x="839.1999999999999" y="-258.66" text-anchor="middle" font-size="23" font-weight="700" fill="#e8e8ed">0</text><text x="839.1999999999999" y="-230.6" text-anchor="middle" font-size="23" font-weight="700" fill="#e8e8ed">1</text><text x="839.1999999999999" y="-202.54" text-anchor="middle" font-size="23" font-weight="700" fill="#e8e8ed">2</text><text x="839.1999999999999" y="-174.48" text-anchor="middle" font-size="23" font-weight="700" fill="#e8e8ed">3</text><text x="839.1999999999999" y="-146.42" text-anchor="middle" font-size="23" font-weight="700" fill="#e8e8ed">4</text><text x="839.1999999999999" y="-118.36" text-anchor="middle" font-size="23" font-weight="700" fill="#e8e8ed">5</text><text x="839.1999999999999" y="-90.3" text-anchor="middle" font-size="23" font-weight="700" fill="#e8e8ed">6</text><text x="839.1999999999999" y="-62.24" text-anchor="middle" font-size="23" font-weight="700" fill="#e8e8ed">7</text><text x="839.1999999999999" y="-34.18" text-anchor="middle" font-size="23" font-weight="700" fill="#e8e8ed">8</text><text x="839.1999999999999" y="-6.12" text-anchor="middle" font-size="23" font-weight="700" fill="#e8e8ed">9</text><text x="839.1999999999999" y="21.94" text-anchor="middle" font-size="23" font-weight="700" fill="#e8e8ed">0</text><text x="839.1999999999999" y="50" text-anchor="middle" font-size="23" font-weight="700" fill="#e8e8ed">1</text></g></g><g clip-path="url(#odo-c2-1)"><g class="odo-c2-1"><text x="852.9999999999999" y="-595.38" text-anchor="middle" font-size="23" font-weight="700" fill="#e8e8ed">0</text><text x="852.9999999999999" y="-567.32" text-anchor="middle" font-size="23" font-weight="700" fill="#e8e8ed">1</text><text x="852.9999999999999" y="-539.26" text-anchor="middle" font-size="23" font-weight="700" fill="#e8e8ed">2</text><text x="852.9999999999999" y="-511.2" text-anchor="middle" font-size="23" font-weight="700" fill="#e8e8ed">3</text><text x="852.9999999999999" y="-483.14" text-anchor="middle" font-size="23" font-weight="700" fill="#e8e8ed">4</text><text x="852.9999999999999" y="-455.08" text-anchor="middle" font-size="23" font-weight="700" fill="#e8e8ed">5</text><text x="852.9999999999999" y="-427.02" text-anchor="middle" font-size="23" font-weight="700" fill="#e8e8ed">6</text><text x="852.9999999999999" y="-398.96" text-anchor="middle" font-size="23" font-weight="700" fill="#e8e8ed">7</text><text x="852.9999999999999" y="-370.9" text-anchor="middle" font-size="23" font-weight="700" fill="#e8e8ed">8</text><text x="852.9999999999999" y="-342.84" text-anchor="middle" font-size="23" font-weight="700" fill="#e8e8ed">9</text><text x="852.9999999999999" y="-314.78" text-anchor="middle" font-size="23" font-weight="700" fill="#e8e8ed">0</text><text x="852.9999999999999" y="-286.72" text-anchor="middle" font-size="23" font-weight="700" fill="#e8e8ed">1</text><text x="852.9999999999999" y="-258.66" text-anchor="middle" font-size="23" font-weight="700" fill="#e8e8ed">2</text><text x="852.9999999999999" y="-230.6" text-anchor="middle" font-size="23" font-weight="700" fill="#e8e8ed">3</text><text x="852.9999999999999" y="-202.54" text-anchor="middle" font-size="23" font-weight="700" fill="#e8e8ed">4</text><text x="852.9999999999999" y="-174.48" text-anchor="middle" font-size="23" font-weight="700" fill="#e8e8ed">5</text><text x="852.9999999999999" y="-146.42" text-anchor="middle" font-size="23" font-weight="700" fill="#e8e8ed">6</text><text x="852.9999999999999" y="-118.36" text-anchor="middle" font-size="23" font-weight="700" fill="#e8e8ed">7</text><text x="852.9999999999999" y="-90.3" text-anchor="middle" font-size="23" font-weight="700" fill="#e8e8ed">8</text><text x="852.9999999999999" y="-62.24" text-anchor="middle" font-size="23" font-weight="700" fill="#e8e8ed">9</text><text x="852.9999999999999" y="-34.18" text-anchor="middle" font-size="23" font-weight="700" fill="#e8e8ed">0</text><text x="852.9999999999999" y="-6.12" text-anchor="middle" font-size="23" font-weight="700" fill="#e8e8ed">1</text><text x="852.9999999999999" y="21.94" text-anchor="middle" font-size="23" font-weight="700" fill="#e8e8ed">2</text><text x="852.9999999999999" y="50" text-anchor="middle" font-size="23" font-weight="700" fill="#e8e8ed">3</text></g></g><g clip-path="url(#odo-c2-2)"><g class="odo-c2-2"><text x="866.7999999999998" y="-679.56" text-anchor="middle" font-size="23" font-weight="700" fill="#e8e8ed">0</text><text x="866.7999999999998" y="-651.5" text-anchor="middle" font-size="23" font-weight="700" fill="#e8e8ed">1</text><text x="866.7999999999998" y="-623.44" text-anchor="middle" font-size="23" font-weight="700" fill="#e8e8ed">2</text><text x="866.7999999999998" y="-595.38" text-anchor="middle" font-size="23" font-weight="700" fill="#e8e8ed">3</text><text x="866.7999999999998" y="-567.32" text-anchor="middle" font-size="23" font-weight="700" fill="#e8e8ed">4</text><text x="866.7999999999998" y="-539.26" text-anchor="middle" font-size="23" font-weight="700" fill="#e8e8ed">5</text><text x="866.7999999999998" y="-511.2" text-anchor="middle" font-size="23" font-weight="700" fill="#e8e8ed">6</text><text x="866.7999999999998" y="-483.14" text-anchor="middle" font-size="23" font-weight="700" fill="#e8e8ed">7</text><text x="866.7999999999998" y="-455.08" text-anchor="middle" font-size="23" font-weight="700" fill="#e8e8ed">8</text><text x="866.7999999999998" y="-427.02" text-anchor="middle" font-size="23" font-weight="700" fill="#e8e8ed">9</text><text x="866.7999999999998" y="-398.96" text-anchor="middle" font-size="23" font-weight="700" fill="#e8e8ed">0</text><text x="866.7999999999998" y="-370.9" text-anchor="middle" font-size="23" font-weight="700" fill="#e8e8ed">1</text><text x="866.7999999999998" y="-342.84" text-anchor="middle" font-size="23" font-weight="700" fill="#e8e8ed">2</text><text x="866.7999999999998" y="-314.78" text-anchor="middle" font-size="23" font-weight="700" fill="#e8e8ed">3</text><text x="866.7999999999998" y="-286.72" text-anchor="middle" font-size="23" font-weight="700" fill="#e8e8ed">4</text><text x="866.7999999999998" y="-258.66" text-anchor="middle" font-size="23" font-weight="700" fill="#e8e8ed">5</text><text x="866.7999999999998" y="-230.6" text-anchor="middle" font-size="23" font-weight="700" fill="#e8e8ed">6</text><text x="866.7999999999998" y="-202.54" text-anchor="middle" font-size="23" font-weight="700" fill="#e8e8ed">7</text><text x="866.7999999999998" y="-174.48" text-anchor="middle" font-size="23" font-weight="700" fill="#e8e8ed">8</text><text x="866.7999999999998" y="-146.42" text-anchor="middle" font-size="23" font-weight="700" fill="#e8e8ed">9</text><text x="866.7999999999998" y="-118.36" text-anchor="middle" font-size="23" font-weight="700" fill="#e8e8ed">0</text><text x="866.7999999999998" y="-90.3" text-anchor="middle" font-size="23" font-weight="700" fill="#e8e8ed">1</text><text x="866.7999999999998" y="-62.24" text-anchor="middle" font-size="23" font-weight="700" fill="#e8e8ed">2</text><text x="866.7999999999998" y="-34.18" text-anchor="middle" font-size="23" font-weight="700" fill="#e8e8ed">3</text><text x="866.7999999999998" y="-6.12" text-anchor="middle" font-size="23" font-weight="700" fill="#e8e8ed">4</text><text x="866.7999999999998" y="21.94" text-anchor="middle" font-size="23" font-weight="700" fill="#e8e8ed">5</text><text x="866.7999999999998" y="50" text-anchor="middle" font-size="23" font-weight="700" fill="#e8e8ed">6</text></g></g>
      <text x="853" y="67" text-anchor="middle" font-size="10.5" fill="#86868b">best day</text>
    </g>
    <g class="fi-ac" style="animation-delay:.3s">
      <line x1="104" y1="162" x2="916" y2="162" stroke="#ffffff" stroke-opacity="0.06" stroke-dasharray="3 7"/>
      <text x="94" y="166" text-anchor="end" font-size="10.5" fill="#86868b">68</text>
    </g><g class="fi-ac" style="animation-delay:.3s">
      <line x1="104" y1="92" x2="916" y2="92" stroke="#ffffff" stroke-opacity="0.06" stroke-dasharray="3 7"/>
      <text x="94" y="96" text-anchor="end" font-size="10.5" fill="#86868b">136</text>
    </g>
    <g><rect class="bar-ac" x="104" y="229.94" width="6.72" height="2.06" rx="2.5" fill="url(#barg-ac)" style="animation-delay:0.25s"><title>2 on 2026-06-26</title></rect><rect class="bar-ac" x="112.92" y="227.88" width="6.72" height="4.12" rx="2.5" fill="url(#barg-ac)" style="animation-delay:0.258s"><title>4 on 2026-06-27</title></rect><rect class="bar-ac" x="130.77" y="229.94" width="6.72" height="2.06" rx="2.5" fill="url(#barg-ac)" style="animation-delay:0.274s"><title>2 on 2026-06-29</title></rect><rect class="bar-ac" x="139.69" y="209.35" width="6.72" height="22.65" rx="2.5" fill="url(#barg-ac)" style="animation-delay:0.282s"><title>22 on 2026-06-30</title></rect><rect class="bar-ac" x="148.62" y="211.41" width="6.72" height="20.59" rx="2.5" fill="url(#barg-ac)" style="animation-delay:0.29s"><title>20 on 2026-07-01</title></rect><rect class="bar-ac" x="157.54" y="207.29" width="6.72" height="24.71" rx="2.5" fill="url(#barg-ac)" style="animation-delay:0.298s"><title>24 on 2026-07-02</title></rect><rect class="bar-ac" x="202.15" y="218.62" width="6.72" height="13.38" rx="2.5" fill="url(#barg-ac)" style="animation-delay:0.338s"><title>13 on 2026-07-07</title></rect><rect class="bar-ac" x="211.08" y="228.91" width="6.72" height="3.09" rx="2.5" fill="url(#barg-ac)" style="animation-delay:0.346s"><title>3 on 2026-07-08</title></rect><rect class="bar-ac" x="220" y="218.62" width="6.72" height="13.38" rx="2.5" fill="url(#barg-ac)" style="animation-delay:0.354s"><title>13 on 2026-07-09</title></rect><rect class="bar-ac" x="228.92" y="230" width="6.72" height="2" rx="2.5" fill="url(#barg-ac)" style="animation-delay:0.362s"><title>1 on 2026-07-10</title></rect><rect class="bar-ac" x="246.77" y="224.79" width="6.72" height="7.21" rx="2.5" fill="url(#barg-ac)" style="animation-delay:0.378s"><title>7 on 2026-07-12</title></rect><rect class="bar-ac" x="255.69" y="219.65" width="6.72" height="12.35" rx="2.5" fill="url(#barg-ac)" style="animation-delay:0.386s"><title>12 on 2026-07-13</title></rect><rect class="bar-ac" x="264.62" y="228.91" width="6.72" height="3.09" rx="2.5" fill="url(#barg-ac)" style="animation-delay:0.394s"><title>3 on 2026-07-14</title></rect><rect class="bar-ac" x="273.54" y="224.79" width="6.72" height="7.21" rx="2.5" fill="url(#barg-ac)" style="animation-delay:0.402s"><title>7 on 2026-07-15</title></rect><rect class="bar-ac" x="282.46" y="215.53" width="6.72" height="16.47" rx="2.5" fill="url(#barg-ac)" style="animation-delay:0.41s"><title>16 on 2026-07-16</title></rect><rect class="bar-ac" x="291.38" y="230" width="6.72" height="2" rx="2.5" fill="url(#barg-ac)" style="animation-delay:0.418s"><title>1 on 2026-07-17</title></rect><rect class="bar-ac" x="300.31" y="222.74" width="6.72" height="9.26" rx="2.5" fill="url(#barg-ac)" style="animation-delay:0.426s"><title>9 on 2026-07-18</title></rect><rect class="bar-ac" x="309.23" y="230" width="6.72" height="2" rx="2.5" fill="url(#barg-ac)" style="animation-delay:0.434s"><title>1 on 2026-07-19</title></rect><rect class="bar-ac" x="327.08" y="209.35" width="6.72" height="22.65" rx="2.5" fill="url(#barg-ac)" style="animation-delay:0.45s"><title>22 on 2026-07-21</title></rect><rect class="bar-ac" x="336" y="229.94" width="6.72" height="2.06" rx="2.5" fill="url(#barg-ac)" style="animation-delay:0.458s"><title>2 on 2026-07-22</title></rect><rect class="bar-ac" x="353.85" y="218.62" width="6.72" height="13.38" rx="2.5" fill="url(#barg-ac)" style="animation-delay:0.474s"><title>13 on 2026-07-24</title></rect><rect class="bar-ac" x="380.62" y="227.88" width="6.72" height="4.12" rx="2.5" fill="url(#barg-ac)" style="animation-delay:0.498s"><title>4 on 2026-07-27</title></rect><rect class="bar-ac" x="389.54" y="182.59" width="6.72" height="49.41" rx="2.5" fill="url(#barg-ac)" style="animation-delay:0.506s"><title>48 on 2026-07-28</title></rect><rect class="bar-ac" x="398.46" y="229.94" width="6.72" height="2.06" rx="2.5" fill="url(#barg-ac)" style="animation-delay:0.514s"><title>2 on 2026-07-29</title></rect><rect class="bar-ac" x="443.08" y="224.79" width="6.72" height="7.21" rx="2.5" fill="url(#barg-ac)" style="animation-delay:0.554s"><title>7 on 2026-08-03</title></rect><rect class="bar-ac" x="452" y="230" width="6.72" height="2" rx="2.5" fill="url(#barg-ac)" style="animation-delay:0.562s"><title>1 on 2026-08-04</title></rect><rect class="bar-ac" x="532.31" y="164.06" width="6.72" height="67.94" rx="2.5" fill="url(#barg-ac)" style="animation-delay:0.634s"><title>66 on 2026-08-13</title></rect><rect class="bar-ac" x="541.23" y="175.38" width="6.72" height="56.62" rx="2.5" fill="url(#barg-ac)" style="animation-delay:0.642s"><title>55 on 2026-08-14</title></rect><rect class="bar-ac" x="550.15" y="227.88" width="6.72" height="4.12" rx="2.5" fill="url(#barg-ac)" style="animation-delay:0.65s"><title>4 on 2026-08-15</title></rect><rect class="bar-ac" x="559.08" y="218.62" width="6.72" height="13.38" rx="2.5" fill="url(#barg-ac)" style="animation-delay:0.658s"><title>13 on 2026-08-16</title></rect><rect class="bar-ac" x="568" y="228.91" width="6.72" height="3.09" rx="2.5" fill="url(#barg-ac)" style="animation-delay:0.666s"><title>3 on 2026-08-17</title></rect><rect class="bar-ac" x="576.92" y="211.41" width="6.72" height="20.59" rx="2.5" fill="url(#barg-ac)" style="animation-delay:0.674s"><title>20 on 2026-08-18</title></rect><rect class="bar-ac" x="585.85" y="203.18" width="6.72" height="28.82" rx="2.5" fill="url(#barg-ac)" style="animation-delay:0.682s"><title>28 on 2026-08-19</title></rect><rect class="bar-ac" x="594.77" y="216.56" width="6.72" height="15.44" rx="2.5" fill="url(#barg-ac)" style="animation-delay:0.69s"><title>15 on 2026-08-20</title></rect><rect class="bar-ac" x="603.69" y="204.21" width="6.72" height="27.79" rx="2.5" fill="url(#barg-ac)" style="animation-delay:0.698s"><title>27 on 2026-08-21</title></rect><rect class="bar-ac" x="612.62" y="173.32" width="6.72" height="58.68" rx="2.5" fill="url(#barg-ac)" style="animation-delay:0.706s"><title>57 on 2026-08-22</title></rect><rect class="bar-ac" x="621.54" y="189.79" width="6.72" height="42.21" rx="2.5" fill="url(#barg-ac)" style="animation-delay:0.714s"><title>41 on 2026-08-23</title></rect><rect class="bar-ac" x="630.46" y="212.44" width="6.72" height="19.56" rx="2.5" fill="url(#barg-ac)" style="animation-delay:0.722s"><title>19 on 2026-08-24</title></rect><rect class="bar-ac" x="639.38" y="208.32" width="6.72" height="23.68" rx="2.5" fill="url(#barg-ac)" style="animation-delay:0.73s"><title>23 on 2026-08-25</title></rect><rect class="bar-ac" x="648.31" y="187.74" width="6.72" height="44.26" rx="2.5" fill="url(#barg-ac)" style="animation-delay:0.738s"><title>43 on 2026-08-26</title></rect><rect class="bar-ac" x="657.23" y="191.85" width="6.72" height="40.15" rx="2.5" fill="url(#barg-ac)" style="animation-delay:0.746s"><title>39 on 2026-08-27</title></rect><rect class="bar-ac" x="684" y="183.62" width="6.72" height="48.38" rx="2.5" fill="url(#barg-ac)" style="animation-delay:0.77s"><title>47 on 2026-08-30</title></rect><rect class="bar-ac" x="692.92" y="214.5" width="6.72" height="17.5" rx="2.5" fill="url(#barg-ac)" style="animation-delay:0.778s"><title>17 on 2026-08-31</title></rect><rect class="bar-ac" x="701.85" y="211.41" width="6.72" height="20.59" rx="2.5" fill="url(#barg-ac)" style="animation-delay:0.786s"><title>20 on 2026-09-01</title></rect><rect class="bar-ac" x="710.77" y="206.26" width="6.72" height="25.74" rx="2.5" fill="url(#barg-ac)" style="animation-delay:0.794s"><title>25 on 2026-09-02</title></rect><rect class="bar-ac" x="719.69" y="230" width="6.72" height="2" rx="2.5" fill="url(#barg-ac)" style="animation-delay:0.802s"><title>1 on 2026-09-03</title></rect><rect class="bar-ac" x="728.62" y="230" width="6.72" height="2" rx="2.5" fill="url(#barg-ac)" style="animation-delay:0.81s"><title>1 on 2026-09-04</title></rect><rect class="bar-ac" x="746.46" y="228.91" width="6.72" height="3.09" rx="2.5" fill="url(#barg-ac)" style="animation-delay:0.826s"><title>3 on 2026-09-06</title></rect><rect class="bar-ac" x="755.38" y="227.88" width="6.72" height="4.12" rx="2.5" fill="url(#barg-ac)" style="animation-delay:0.834s"><title>4 on 2026-09-07</title></rect><rect class="bar-ac" x="764.31" y="230" width="6.72" height="2" rx="2.5" fill="url(#barg-ac)" style="animation-delay:0.842s"><title>1 on 2026-09-08</title></rect><rect class="bar-ac" x="853.54" y="194.94" width="6.72" height="37.06" rx="2.5" fill="url(#barg-ac)" style="animation-delay:0.922s"><title>36 on 2026-09-18</title></rect><rect class="bar-ac" x="880.31" y="224.79" width="6.72" height="7.21" rx="2.5" fill="url(#barg-ac)" style="animation-delay:0.946s"><title>7 on 2026-09-21</title></rect><rect class="bar-ac" x="889.23" y="210.38" width="6.72" height="21.62" rx="2.5" fill="url(#barg-ac)" style="animation-delay:0.954s"><title>21 on 2026-09-22</title></rect><rect class="bar-ac" x="898.15" y="92" width="6.72" height="140" rx="2.5" fill="url(#barg-ac)" style="animation-delay:0.962s"><title>136 on 2026-09-23</title></rect></g>
    <g mask="url(#wipe-ac)"><path d="M107.36 229.94 L116.28 228.91 L125.21 229.94 L134.13 229.94 L143.05 225.82 L151.98 223.42 L160.9 221.12 L169.82 221.41 L178.75 222 L187.67 222 L196.59 222.29 L205.52 223.62 L214.44 226.12 L223.36 227.74 L232.28 227.59 L241.21 227.59 L250.13 226.56 L259.05 224.79 L267.98 226.26 L276.9 225.68 L285.82 225.24 L294.75 225.24 L303.67 223.91 L312.59 224.79 L321.52 226.56 L330.44 223.76 L339.36 224.5 L348.28 226.85 L357.21 225.09 L366.13 226.41 L375.05 226.56 L383.98 225.97 L392.9 222.15 L401.82 222.15 L410.75 222.15 L419.67 224.06 L428.59 224.06 L437.52 224.06 L446.44 223.62 L455.36 230.53 L464.28 230.82 L473.21 230.82 L482.13 230.82 L491.05 230.82 L499.98 230.82 L508.9 231.85 L517.82 232 L526.75 232 L535.67 222.29 L544.59 214.21 L553.52 213.62 L562.44 211.71 L571.36 211.26 L580.28 208.32 L589.21 204.21 L598.13 211.71 L607.05 215.82 L615.98 208.03 L624.9 203.91 L633.82 201.56 L642.75 201.12 L651.67 198.91 L660.59 195.38 L669.52 199.35 L678.44 207.74 L687.36 206.85 L696.28 207.15 L705.21 207.59 L714.13 210.24 L723.05 215.82 L731.98 215.68 L740.9 215.68 L749.82 222.15 L758.75 224.06 L767.67 226.85 L776.59 230.53 L785.52 230.68 L794.44 230.82 L803.36 230.82 L812.28 231.26 L821.21 231.85 L830.13 232 L839.05 232 L847.98 232 L856.9 226.71 L865.82 226.71 L874.75 226.71 L883.67 225.68 L892.59 222.59 L901.52 202.59 L910.44 202.59 L910.44 232 L107.36 232 Z" fill="url(#areag-ac)"/></g>
    <path class="line-ac" d="M107.36 229.94 L116.28 228.91 L125.21 229.94 L134.13 229.94 L143.05 225.82 L151.98 223.42 L160.9 221.12 L169.82 221.41 L178.75 222 L187.67 222 L196.59 222.29 L205.52 223.62 L214.44 226.12 L223.36 227.74 L232.28 227.59 L241.21 227.59 L250.13 226.56 L259.05 224.79 L267.98 226.26 L276.9 225.68 L285.82 225.24 L294.75 225.24 L303.67 223.91 L312.59 224.79 L321.52 226.56 L330.44 223.76 L339.36 224.5 L348.28 226.85 L357.21 225.09 L366.13 226.41 L375.05 226.56 L383.98 225.97 L392.9 222.15 L401.82 222.15 L410.75 222.15 L419.67 224.06 L428.59 224.06 L437.52 224.06 L446.44 223.62 L455.36 230.53 L464.28 230.82 L473.21 230.82 L482.13 230.82 L491.05 230.82 L499.98 230.82 L508.9 231.85 L517.82 232 L526.75 232 L535.67 222.29 L544.59 214.21 L553.52 213.62 L562.44 211.71 L571.36 211.26 L580.28 208.32 L589.21 204.21 L598.13 211.71 L607.05 215.82 L615.98 208.03 L624.9 203.91 L633.82 201.56 L642.75 201.12 L651.67 198.91 L660.59 195.38 L669.52 199.35 L678.44 207.74 L687.36 206.85 L696.28 207.15 L705.21 207.59 L714.13 210.24 L723.05 215.82 L731.98 215.68 L740.9 215.68 L749.82 222.15 L758.75 224.06 L767.67 226.85 L776.59 230.53 L785.52 230.68 L794.44 230.82 L803.36 230.82 L812.28 231.26 L821.21 231.85 L830.13 232 L839.05 232 L847.98 232 L856.9 226.71 L865.82 226.71 L874.75 226.71 L883.67 225.68 L892.59 222.59 L901.52 202.59 L910.44 202.59" fill="none" stroke="#2997ff" stroke-width="2.25" stroke-linecap="round" stroke-linejoin="round"/>
    <circle class="ring-ac" cx="910.44" cy="202.59" r="4" fill="none" stroke="#2997ff" stroke-width="1.5"/>
    <circle class="dot-ac" cx="910.44" cy="202.59" r="4" fill="#2997ff"/>
    <line x1="104" y1="232" x2="916" y2="232" stroke="#ffffff" stroke-opacity="0.14"/>
    <text class="fi-ac" x="148.62" y="256" font-size="11" fill="#86868b" style="animation-delay:0.92s">Jul</text><text class="fi-ac" x="425.23" y="256" font-size="11" fill="#86868b" style="animation-delay:1.04s">Aug</text><text class="fi-ac" x="701.85" y="256" font-size="11" fill="#86868b" style="animation-delay:1.17s">Sep</text>
    <text class="fi-ac" x="104" y="278" font-size="11.5" fill="#86868b" style="animation-delay:1.4s">54 active days in the window · peak 136 in a day · 7-day average</text>
    
  <g class="sh-ac"><rect x="-200" y="-60" width="110" height="420" fill="url(#sheen-ac)" transform="skewX(-14)"/></g>
  <style>@keyframes sw-ac{0%{transform:translateX(0)}55%,100%{transform:translateX(1320px)}}
  .sh-ac{animation:sw-ac 10s ease-in-out infinite;animation-delay:3s}</style>
  </g>
</svg>
